<svg width="200" height="123" viewBox="0 0 200 123" fill="none" xmlns="http://www.w3.org/2000/svg">
<path d="M36.3652 120.123C35.5254 120.123 34.8066 119.945 34.209 119.59C33.6152 119.23 33.1602 118.73 32.8438 118.09C32.5312 117.445 32.375 116.697 32.375 115.846V115.629C32.375 114.797 32.5312 114.061 32.8438 113.42C33.1562 112.775 33.6035 112.27 34.1855 111.902C34.7676 111.531 35.4629 111.346 36.2715 111.346C36.8379 111.346 37.3633 111.43 37.8477 111.598C38.332 111.766 38.7539 112.002 39.1133 112.307V114.275H37.9883L37.8359 112.957C37.707 112.863 37.5645 112.783 37.4082 112.717C37.252 112.65 37.0801 112.6 36.8926 112.564C36.709 112.529 36.5078 112.512 36.2891 112.512C35.7773 112.512 35.3379 112.641 34.9707 112.898C34.6074 113.156 34.3301 113.518 34.1387 113.982C33.9473 114.447 33.8516 114.992 33.8516 115.617V115.846C33.8516 116.494 33.9531 117.053 34.1562 117.521C34.3594 117.986 34.6504 118.344 35.0293 118.594C35.4121 118.844 35.8691 118.969 36.4004 118.969C36.6582 118.969 36.9121 118.939 37.1621 118.881C37.416 118.818 37.6387 118.738 37.8301 118.641L37.9883 117.445H39.1016V119.402C38.7734 119.617 38.3711 119.791 37.8945 119.924C37.4219 120.057 36.9121 120.123 36.3652 120.123ZM43.0156 120.123C42.4062 120.123 41.8828 119.986 41.4453 119.713C41.0078 119.439 40.6719 119.061 40.4375 118.576C40.2031 118.088 40.0859 117.527 40.0859 116.895V116.771C40.0859 116.143 40.2031 115.586 40.4375 115.102C40.6719 114.617 41.0078 114.236 41.4453 113.959C41.8828 113.682 42.4023 113.543 43.0039 113.543C43.6133 113.543 44.1367 113.682 44.5742 113.959C45.0117 114.232 45.3477 114.611 45.582 115.096C45.8164 115.58 45.9336 116.139 45.9336 116.771V116.895C45.9336 117.527 45.8164 118.088 45.582 118.576C45.3477 119.061 45.0117 119.439 44.5742 119.713C44.1406 119.986 43.6211 120.123 43.0156 120.123ZM43.0156 118.986C43.3438 118.986 43.6133 118.898 43.8242 118.723C44.0391 118.543 44.1992 118.297 44.3047 117.984C44.4102 117.668 44.4629 117.305 44.4629 116.895V116.771C44.4629 116.365 44.4102 116.006 44.3047 115.693C44.1992 115.381 44.0391 115.135 43.8242 114.955C43.6094 114.775 43.3359 114.686 43.0039 114.686C42.6797 114.686 42.4102 114.775 42.1953 114.955C41.9805 115.135 41.8203 115.381 41.7148 115.693C41.6133 116.006 41.5625 116.365 41.5625 116.771V116.895C41.5625 117.305 41.6133 117.668 41.7148 117.984C41.8203 118.297 41.9805 118.543 42.1953 118.723C42.4141 118.898 42.6875 118.986 43.0156 118.986ZM46.8184 120V119.098L47.6973 118.922V114.744L46.7715 114.568V113.66H49.0566L49.1328 114.457L49.1445 114.586C49.3125 114.25 49.5176 113.992 49.7598 113.812C50.0059 113.633 50.293 113.543 50.6211 113.543C50.7305 113.543 50.8457 113.553 50.9668 113.572C51.0918 113.592 51.1934 113.613 51.2715 113.637L51.1016 115.002L50.2754 114.955C50.0059 114.939 49.7832 114.992 49.6074 115.113C49.4355 115.234 49.291 115.402 49.1738 115.617V118.922L50.0527 119.098V120H46.8184ZM54.4238 120.111C53.8848 120.111 53.4648 119.961 53.1641 119.66C52.8633 119.355 52.7129 118.871 52.7129 118.207V114.715H51.7871V113.66H52.7129V112.119H54.1836V113.66H55.4375V114.715H54.1836V118.207C54.1836 118.477 54.2383 118.674 54.3477 118.799C54.4609 118.92 54.6133 118.98 54.8047 118.98C54.9141 118.98 55.0352 118.971 55.168 118.951C55.3047 118.932 55.4141 118.912 55.4961 118.893L55.6484 119.93C55.4766 119.98 55.2793 120.023 55.0566 120.059C54.8379 120.094 54.627 120.111 54.4238 120.111ZM59.1816 120.123C58.584 120.123 58.0625 119.99 57.6172 119.725C57.1758 119.455 56.832 119.084 56.5859 118.611C56.3438 118.139 56.2227 117.598 56.2227 116.988V116.742C56.2227 116.125 56.3418 115.576 56.5801 115.096C56.8223 114.611 57.1543 114.232 57.5762 113.959C57.998 113.682 58.4785 113.543 59.0176 113.543C59.5918 113.543 60.0723 113.658 60.459 113.889C60.8496 114.119 61.1445 114.447 61.3438 114.873C61.543 115.295 61.6426 115.803 61.6426 116.396V117.24H57.752L57.7402 117.27C57.7559 117.602 57.8242 117.896 57.9453 118.154C58.0703 118.412 58.2461 118.615 58.4727 118.764C58.7031 118.912 58.9824 118.986 59.3105 118.986C59.6543 118.986 59.9668 118.939 60.248 118.846C60.5293 118.752 60.7891 118.619 61.0273 118.447L61.4902 119.373C61.2402 119.584 60.9219 119.762 60.5352 119.906C60.1484 120.051 59.6973 120.123 59.1816 120.123ZM57.7754 116.203H60.2305V116.051C60.2305 115.773 60.1875 115.531 60.1016 115.324C60.0195 115.113 59.8887 114.949 59.709 114.832C59.5332 114.715 59.3086 114.656 59.0352 114.656C58.7969 114.656 58.5879 114.723 58.4082 114.855C58.2285 114.988 58.084 115.17 57.9746 115.4C57.8691 115.627 57.7969 115.885 57.7578 116.174L57.7754 116.203ZM65.1582 120.123C64.7051 120.123 64.2812 120.08 63.8867 119.994C63.4961 119.904 63.1035 119.773 62.709 119.602L62.6914 117.926H63.752L63.9746 118.84C64.1426 118.914 64.3145 118.973 64.4902 119.016C64.6699 119.055 64.8691 119.074 65.0879 119.074C65.5098 119.074 65.8066 119 65.9785 118.852C66.1543 118.703 66.2422 118.52 66.2422 118.301C66.2422 118.09 66.1504 117.91 65.9668 117.762C65.7871 117.609 65.4414 117.479 64.9297 117.369C64.1719 117.205 63.6133 116.967 63.2539 116.654C62.8984 116.338 62.7207 115.928 62.7207 115.424C62.7207 115.076 62.8125 114.762 62.9961 114.48C63.1836 114.199 63.457 113.975 63.8164 113.807C64.1797 113.635 64.625 113.549 65.1523 113.549C65.6328 113.549 66.0586 113.6 66.4297 113.701C66.8047 113.799 67.123 113.93 67.3848 114.094L67.4199 115.705H66.3711L66.1895 114.867C66.0684 114.781 65.9277 114.715 65.7676 114.668C65.6074 114.621 65.4238 114.598 65.2168 114.598C64.8926 114.598 64.6367 114.67 64.4492 114.814C64.2617 114.955 64.168 115.133 64.168 115.348C64.168 115.473 64.1973 115.586 64.2559 115.688C64.3184 115.789 64.4355 115.883 64.6074 115.969C64.7832 116.051 65.0391 116.131 65.375 116.209C66.1992 116.4 66.7891 116.65 67.1445 116.959C67.5 117.268 67.6777 117.676 67.6777 118.184C67.6777 118.75 67.4707 119.215 67.0566 119.578C66.6426 119.941 66.0098 120.123 65.1582 120.123ZM73.9648 120.123C73.4531 120.123 73.0156 119.994 72.6523 119.736C72.2891 119.479 72.0098 119.119 71.8145 118.658C71.623 118.193 71.5273 117.652 71.5273 117.035V116.912C71.5273 116.236 71.623 115.646 71.8145 115.143C72.0098 114.639 72.2891 114.246 72.6523 113.965C73.0195 113.684 73.4551 113.543 73.959 113.543C74.3223 113.543 74.6387 113.613 74.9082 113.754C75.1816 113.891 75.416 114.088 75.6113 114.346V111.943L74.6797 111.768V110.859H75.6113H77.0879V118.922L77.9668 119.098V120H75.8105L75.6934 119.232C75.4941 119.525 75.25 119.748 74.9609 119.9C74.6758 120.049 74.3438 120.123 73.9648 120.123ZM74.3809 118.957C74.6621 118.957 74.9043 118.896 75.1074 118.775C75.3105 118.65 75.4785 118.471 75.6113 118.236V115.441C75.4824 115.215 75.3145 115.037 75.1074 114.908C74.9043 114.775 74.666 114.709 74.3926 114.709C74.0723 114.709 73.8086 114.803 73.6016 114.99C73.3984 115.174 73.248 115.432 73.1504 115.764C73.0527 116.092 73.0039 116.475 73.0039 116.912V117.035C73.0039 117.621 73.1113 118.088 73.3262 118.436C73.5449 118.783 73.8965 118.957 74.3809 118.957ZM81.5645 120.123C80.9668 120.123 80.4453 119.99 80 119.725C79.5586 119.455 79.2148 119.084 78.9688 118.611C78.7266 118.139 78.6055 117.598 78.6055 116.988V116.742C78.6055 116.125 78.7246 115.576 78.9629 115.096C79.2051 114.611 79.5371 114.232 79.959 113.959C80.3809 113.682 80.8613 113.543 81.4004 113.543C81.9746 113.543 82.4551 113.658 82.8418 113.889C83.2324 114.119 83.5273 114.447 83.7266 114.873C83.9258 115.295 84.0254 115.803 84.0254 116.396V117.24H80.1348L80.123 117.27C80.1387 117.602 80.207 117.896 80.3281 118.154C80.4531 118.412 80.6289 118.615 80.8555 118.764C81.0859 118.912 81.3652 118.986 81.6934 118.986C82.0371 118.986 82.3496 118.939 82.6309 118.846C82.9121 118.752 83.1719 118.619 83.4102 118.447L83.873 119.373C83.623 119.584 83.3047 119.762 82.918 119.906C82.5312 120.051 82.0801 120.123 81.5645 120.123ZM80.1582 116.203H82.6133V116.051C82.6133 115.773 82.5703 115.531 82.4844 115.324C82.4023 115.113 82.2715 114.949 82.0918 114.832C81.916 114.715 81.6914 114.656 81.418 114.656C81.1797 114.656 80.9707 114.723 80.791 114.855C80.6113 114.988 80.4668 115.17 80.3574 115.4C80.252 115.627 80.1797 115.885 80.1406 116.174L80.1582 116.203ZM90.7578 120.123C90.1641 120.123 89.6484 119.988 89.2109 119.719C88.7773 119.445 88.4414 119.07 88.2031 118.594C87.9688 118.113 87.8516 117.561 87.8516 116.936V116.73C87.8516 116.117 87.9688 115.57 88.2031 115.09C88.4375 114.609 88.7715 114.232 89.2051 113.959C89.6426 113.682 90.1582 113.543 90.752 113.543C91.2949 113.543 91.7676 113.631 92.1699 113.807C92.5723 113.979 92.9023 114.193 93.1602 114.451L93.166 116.145H92.041L91.8242 115.025C91.7148 114.912 91.5762 114.822 91.4082 114.756C91.2402 114.686 91.0566 114.65 90.8574 114.65C90.5332 114.65 90.2559 114.738 90.0254 114.914C89.7988 115.09 89.625 115.334 89.5039 115.646C89.3867 115.955 89.3281 116.316 89.3281 116.73V116.936C89.3281 117.381 89.3887 117.756 89.5098 118.061C89.6309 118.365 89.7988 118.596 90.0137 118.752C90.2324 118.908 90.4824 118.986 90.7637 118.986C91.1035 118.986 91.3789 118.895 91.5898 118.711C91.8047 118.527 91.9453 118.273 92.0117 117.949H93.2891L93.3066 117.984C93.2598 118.398 93.1367 118.768 92.9375 119.092C92.7422 119.412 92.4648 119.664 92.1055 119.848C91.75 120.031 91.3008 120.123 90.7578 120.123ZM96.2715 120.123C95.627 120.123 95.125 119.957 94.7656 119.625C94.4062 119.293 94.2266 118.836 94.2266 118.254C94.2266 117.855 94.3359 117.506 94.5547 117.205C94.7734 116.904 95.0938 116.67 95.5156 116.502C95.9375 116.33 96.4492 116.244 97.0508 116.244H98.0176V115.711C98.0176 115.375 97.916 115.107 97.7129 114.908C97.5137 114.709 97.2227 114.609 96.8398 114.609C96.6211 114.609 96.4277 114.637 96.2598 114.691C96.0918 114.742 95.9414 114.816 95.8086 114.914L95.6738 115.77H94.5898L94.5781 114.205C94.8906 114.002 95.2383 113.842 95.6211 113.725C96.0039 113.604 96.4297 113.543 96.8984 113.543C97.7031 113.543 98.3359 113.732 98.7969 114.111C99.2617 114.486 99.4941 115.025 99.4941 115.729V118.523C99.4941 118.609 99.4941 118.693 99.4941 118.775C99.498 118.857 99.5039 118.938 99.5117 119.016L100.156 119.098V120H98.2285C98.1895 119.863 98.1523 119.73 98.1172 119.602C98.0859 119.473 98.0625 119.344 98.0469 119.215C97.8359 119.48 97.5801 119.699 97.2793 119.871C96.9824 120.039 96.6465 120.123 96.2715 120.123ZM96.6055 118.98C96.9023 118.98 97.1797 118.912 97.4375 118.775C97.6953 118.635 97.8887 118.459 98.0176 118.248V117.188H97.0332C96.5918 117.188 96.2578 117.291 96.0312 117.498C95.8086 117.701 95.6973 117.939 95.6973 118.213C95.6973 118.459 95.7754 118.648 95.9316 118.781C96.0879 118.914 96.3125 118.98 96.6055 118.98ZM104.445 120.123C104.047 120.123 103.703 120.045 103.414 119.889C103.125 119.732 102.883 119.506 102.688 119.209L102.57 120H101.299V111.943L100.367 111.768V110.859H102.77V114.369C102.961 114.1 103.195 113.895 103.473 113.754C103.754 113.613 104.08 113.543 104.451 113.543C104.971 113.543 105.41 113.684 105.77 113.965C106.133 114.242 106.41 114.633 106.602 115.137C106.793 115.641 106.889 116.232 106.889 116.912V117.035C106.889 117.652 106.793 118.193 106.602 118.658C106.41 119.123 106.133 119.484 105.77 119.742C105.406 119.996 104.965 120.123 104.445 120.123ZM104.023 118.957C104.508 118.957 104.859 118.787 105.078 118.447C105.301 118.104 105.412 117.633 105.412 117.035V116.912C105.412 116.467 105.363 116.08 105.266 115.752C105.168 115.42 105.018 115.164 104.814 114.984C104.611 114.801 104.35 114.709 104.029 114.709C103.732 114.709 103.479 114.781 103.268 114.926C103.061 115.066 102.895 115.258 102.77 115.5V118.207C102.898 118.445 103.066 118.631 103.273 118.764C103.484 118.893 103.734 118.957 104.023 118.957ZM110.826 120.123C110.229 120.123 109.707 119.99 109.262 119.725C108.82 119.455 108.477 119.084 108.23 118.611C107.988 118.139 107.867 117.598 107.867 116.988V116.742C107.867 116.125 107.986 115.576 108.225 115.096C108.467 114.611 108.799 114.232 109.221 113.959C109.643 113.682 110.123 113.543 110.662 113.543C111.236 113.543 111.717 113.658 112.104 113.889C112.494 114.119 112.789 114.447 112.988 114.873C113.188 115.295 113.287 115.803 113.287 116.396V117.24H109.396L109.385 117.27C109.4 117.602 109.469 117.896 109.59 118.154C109.715 118.412 109.891 118.615 110.117 118.764C110.348 118.912 110.627 118.986 110.955 118.986C111.299 118.986 111.611 118.939 111.893 118.846C112.174 118.752 112.434 118.619 112.672 118.447L113.135 119.373C112.885 119.584 112.566 119.762 112.18 119.906C111.793 120.051 111.342 120.123 110.826 120.123ZM109.42 116.203H111.875V116.051C111.875 115.773 111.832 115.531 111.746 115.324C111.664 115.113 111.533 114.949 111.354 114.832C111.178 114.715 110.953 114.656 110.68 114.656C110.441 114.656 110.232 114.723 110.053 114.855C109.873 114.988 109.729 115.17 109.619 115.4C109.514 115.627 109.441 115.885 109.402 116.174L109.42 116.203ZM114.043 120V119.098L114.928 118.922V111.943L113.99 111.768V110.859H116.398V118.922L117.283 119.098V120H114.043ZM120.793 120.123C120.184 120.123 119.66 119.986 119.223 119.713C118.785 119.439 118.449 119.061 118.215 118.576C117.98 118.088 117.863 117.527 117.863 116.895V116.771C117.863 116.143 117.98 115.586 118.215 115.102C118.449 114.617 118.785 114.236 119.223 113.959C119.66 113.682 120.18 113.543 120.781 113.543C121.391 113.543 121.914 113.682 122.352 113.959C122.789 114.232 123.125 114.611 123.359 115.096C123.594 115.58 123.711 116.139 123.711 116.771V116.895C123.711 117.527 123.594 118.088 123.359 118.576C123.125 119.061 122.789 119.439 122.352 119.713C121.918 119.986 121.398 120.123 120.793 120.123ZM120.793 118.986C121.121 118.986 121.391 118.898 121.602 118.723C121.816 118.543 121.977 118.297 122.082 117.984C122.188 117.668 122.24 117.305 122.24 116.895V116.771C122.24 116.365 122.188 116.006 122.082 115.693C121.977 115.381 121.816 115.135 121.602 114.955C121.387 114.775 121.113 114.686 120.781 114.686C120.457 114.686 120.188 114.775 119.973 114.955C119.758 115.135 119.598 115.381 119.492 115.693C119.391 116.006 119.34 116.365 119.34 116.771V116.895C119.34 117.305 119.391 117.668 119.492 117.984C119.598 118.297 119.758 118.543 119.973 118.723C120.191 118.898 120.465 118.986 120.793 118.986ZM130.467 120.123C129.869 120.123 129.348 119.99 128.902 119.725C128.461 119.455 128.117 119.084 127.871 118.611C127.629 118.139 127.508 117.598 127.508 116.988V116.742C127.508 116.125 127.627 115.576 127.865 115.096C128.107 114.611 128.439 114.232 128.861 113.959C129.283 113.682 129.764 113.543 130.303 113.543C130.877 113.543 131.357 113.658 131.744 113.889C132.135 114.119 132.43 114.447 132.629 114.873C132.828 115.295 132.928 115.803 132.928 116.396V117.24H129.037L129.025 117.27C129.041 117.602 129.109 117.896 129.23 118.154C129.355 118.412 129.531 118.615 129.758 118.764C129.988 118.912 130.268 118.986 130.596 118.986C130.939 118.986 131.252 118.939 131.533 118.846C131.814 118.752 132.074 118.619 132.312 118.447L132.775 119.373C132.525 119.584 132.207 119.762 131.82 119.906C131.434 120.051 130.982 120.123 130.467 120.123ZM129.061 116.203H131.516V116.051C131.516 115.773 131.473 115.531 131.387 115.324C131.305 115.113 131.174 114.949 130.994 114.832C130.818 114.715 130.594 114.656 130.32 114.656C130.082 114.656 129.873 114.723 129.693 114.855C129.514 114.988 129.369 115.17 129.26 115.4C129.154 115.627 129.082 115.885 129.043 116.174L129.061 116.203ZM140.293 120.123C139.895 120.123 139.551 120.045 139.262 119.889C138.973 119.732 138.73 119.506 138.535 119.209L138.418 120H137.146V111.943L136.215 111.768V110.859H138.617V114.369C138.809 114.1 139.043 113.895 139.32 113.754C139.602 113.613 139.928 113.543 140.299 113.543C140.818 113.543 141.258 113.684 141.617 113.965C141.98 114.242 142.258 114.633 142.449 115.137C142.641 115.641 142.736 116.232 142.736 116.912V117.035C142.736 117.652 142.641 118.193 142.449 118.658C142.258 119.123 141.98 119.484 141.617 119.742C141.254 119.996 140.812 120.123 140.293 120.123ZM139.871 118.957C140.355 118.957 140.707 118.787 140.926 118.447C141.148 118.104 141.26 117.633 141.26 117.035V116.912C141.26 116.467 141.211 116.08 141.113 115.752C141.016 115.42 140.865 115.164 140.662 114.984C140.459 114.801 140.197 114.709 139.877 114.709C139.58 114.709 139.326 114.781 139.115 114.926C138.908 115.066 138.742 115.258 138.617 115.5V118.207C138.746 118.445 138.914 118.631 139.121 118.764C139.332 118.893 139.582 118.957 139.871 118.957ZM145.654 120.123C145.01 120.123 144.508 119.957 144.148 119.625C143.789 119.293 143.609 118.836 143.609 118.254C143.609 117.855 143.719 117.506 143.938 117.205C144.156 116.904 144.477 116.67 144.898 116.502C145.32 116.33 145.832 116.244 146.434 116.244H147.4V115.711C147.4 115.375 147.299 115.107 147.096 114.908C146.896 114.709 146.605 114.609 146.223 114.609C146.004 114.609 145.811 114.637 145.643 114.691C145.475 114.742 145.324 114.816 145.191 114.914L145.057 115.77H143.973L143.961 114.205C144.273 114.002 144.621 113.842 145.004 113.725C145.387 113.604 145.812 113.543 146.281 113.543C147.086 113.543 147.719 113.732 148.18 114.111C148.645 114.486 148.877 115.025 148.877 115.729V118.523C148.877 118.609 148.877 118.693 148.877 118.775C148.881 118.857 148.887 118.938 148.895 119.016L149.539 119.098V120H147.611C147.572 119.863 147.535 119.73 147.5 119.602C147.469 119.473 147.445 119.344 147.43 119.215C147.219 119.48 146.963 119.699 146.662 119.871C146.365 120.039 146.029 120.123 145.654 120.123ZM145.988 118.98C146.285 118.98 146.562 118.912 146.82 118.775C147.078 118.635 147.271 118.459 147.4 118.248V117.188H146.416C145.975 117.188 145.641 117.291 145.414 117.498C145.191 117.701 145.08 117.939 145.08 118.213C145.08 118.459 145.158 118.648 145.314 118.781C145.471 118.914 145.695 118.98 145.988 118.98ZM150.33 120V119.098L151.209 118.922V114.744L150.283 114.568V113.66H152.568L152.645 114.457L152.656 114.586C152.824 114.25 153.029 113.992 153.271 113.812C153.518 113.633 153.805 113.543 154.133 113.543C154.242 113.543 154.357 113.553 154.479 113.572C154.604 113.592 154.705 113.613 154.783 113.637L154.613 115.002L153.787 114.955C153.518 114.939 153.295 114.992 153.119 115.113C152.947 115.234 152.803 115.402 152.686 115.617V118.922L153.564 119.098V120H150.33ZM158.949 120.123C158.551 120.123 158.207 120.045 157.918 119.889C157.629 119.732 157.387 119.506 157.191 119.209L157.074 120H155.803V111.943L154.871 111.768V110.859H157.273V114.369C157.465 114.1 157.699 113.895 157.977 113.754C158.258 113.613 158.584 113.543 158.955 113.543C159.475 113.543 159.914 113.684 160.273 113.965C160.637 114.242 160.914 114.633 161.105 115.137C161.297 115.641 161.393 116.232 161.393 116.912V117.035C161.393 117.652 161.297 118.193 161.105 118.658C160.914 119.123 160.637 119.484 160.273 119.742C159.91 119.996 159.469 120.123 158.949 120.123ZM158.527 118.957C159.012 118.957 159.363 118.787 159.582 118.447C159.805 118.104 159.916 117.633 159.916 117.035V116.912C159.916 116.467 159.867 116.08 159.77 115.752C159.672 115.42 159.521 115.164 159.318 114.984C159.115 114.801 158.854 114.709 158.533 114.709C158.236 114.709 157.982 114.781 157.771 114.926C157.564 115.066 157.398 115.258 157.273 115.5V118.207C157.402 118.445 157.57 118.631 157.777 118.764C157.988 118.893 158.238 118.957 158.527 118.957ZM164.311 120.123C163.666 120.123 163.164 119.957 162.805 119.625C162.445 119.293 162.266 118.836 162.266 118.254C162.266 117.855 162.375 117.506 162.594 117.205C162.812 116.904 163.133 116.67 163.555 116.502C163.977 116.33 164.488 116.244 165.09 116.244H166.057V115.711C166.057 115.375 165.955 115.107 165.752 114.908C165.553 114.709 165.262 114.609 164.879 114.609C164.66 114.609 164.467 114.637 164.299 114.691C164.131 114.742 163.98 114.816 163.848 114.914L163.713 115.77H162.629L162.617 114.205C162.93 114.002 163.277 113.842 163.66 113.725C164.043 113.604 164.469 113.543 164.938 113.543C165.742 113.543 166.375 113.732 166.836 114.111C167.301 114.486 167.533 115.025 167.533 115.729V118.523C167.533 118.609 167.533 118.693 167.533 118.775C167.537 118.857 167.543 118.938 167.551 119.016L168.195 119.098V120H166.268C166.229 119.863 166.191 119.73 166.156 119.602C166.125 119.473 166.102 119.344 166.086 119.215C165.875 119.48 165.619 119.699 165.318 119.871C165.021 120.039 164.686 120.123 164.311 120.123ZM164.645 118.98C164.941 118.98 165.219 118.912 165.477 118.775C165.734 118.635 165.928 118.459 166.057 118.248V117.188H165.072C164.631 117.188 164.297 117.291 164.07 117.498C163.848 117.701 163.736 117.939 163.736 118.213C163.736 118.459 163.814 118.648 163.971 118.781C164.127 118.914 164.352 118.98 164.645 118.98Z" fill="#999591"/>
<rect y="95.8242" width="200" height="1.7333" fill="#FF9000"/>
<path d="M46.3228 60.0976V72.2792C46.3228 73.3146 46.1109 74.3014 45.687 75.2397C45.2957 76.1456 44.7577 76.9383 44.073 77.6178C43.3883 78.2972 42.5732 78.8311 41.6276 79.2193C40.7146 79.64 39.7365 79.8503 38.6931 79.8503C37.6497 79.8503 36.6716 79.6561 35.7586 79.2679C34.8456 78.8796 34.0468 78.3619 33.3621 77.7148C32.6774 77.0354 32.1231 76.2589 31.6992 75.3853C31.3079 74.4793 31.096 73.5087 31.0634 72.4733V63.4948C30.9656 62.4918 30.5091 61.7638 29.694 61.3109C30.1504 61.0844 30.6069 60.9711 31.0634 60.9711V49.5175C31.096 48.4821 31.3079 47.5115 31.6992 46.6056C32.1231 45.6996 32.6774 44.9231 33.3621 44.276C34.0468 43.5965 34.8456 43.0627 35.7586 42.6744C36.6716 42.2862 37.6497 42.092 38.6931 42.092C39.7365 42.092 40.7146 42.3023 41.6276 42.723C42.5732 43.1112 43.3883 43.6451 44.073 44.3245C44.7577 45.004 45.2957 45.8129 45.687 46.7512C46.1109 47.6571 46.3228 48.6439 46.3228 49.7116C46.3228 50.2617 46.3717 50.6661 46.4695 50.9249C46.5999 51.1838 46.7304 51.3941 46.8608 51.5559C46.9912 51.7176 47.1053 51.8632 47.2031 51.9927C47.3336 52.1221 47.3988 52.3324 47.3988 52.6236H44.8555C44.3339 52.5589 44.073 52.2838 44.073 51.7985C44.073 52.2838 43.8122 52.5589 43.2905 52.6236H40.6983C40.6983 52.3324 40.7472 52.1221 40.8451 51.9927C40.9755 51.8632 41.1059 51.7176 41.2363 51.5559C41.3668 51.3941 41.4809 51.1838 41.5787 50.9249C41.7091 50.6661 41.7743 50.2455 41.7743 49.6631V49.6146C41.7743 49.194 41.758 48.6924 41.7254 48.1101C41.6928 47.4953 41.5787 46.9129 41.3831 46.3629C41.1874 45.8129 40.8777 45.3437 40.4538 44.9555C40.0299 44.5672 39.443 44.3731 38.6931 44.3731C37.9106 44.3731 37.3074 44.5834 36.8835 45.004C36.4922 45.3922 36.1988 45.8614 36.0031 46.4114C35.8075 46.9615 35.6934 47.5438 35.6608 48.1586C35.6282 48.7733 35.6119 49.291 35.6119 49.7116V60.9711C36.0684 60.9711 36.5248 61.0844 36.9813 61.3109C36.1662 61.7638 35.7097 62.4918 35.6119 63.4948V72.2792C35.6119 72.6998 35.6282 73.2175 35.6608 73.8322C35.6934 74.4146 35.8075 74.997 36.0031 75.5794C36.1988 76.1294 36.4922 76.5986 36.8835 76.9868C37.3074 77.3751 37.9106 77.5692 38.6931 77.5692C39.4756 77.5692 40.0625 77.3751 40.4538 76.9868C40.8777 76.5986 41.1874 76.1294 41.3831 75.5794C41.5787 74.997 41.6928 74.4146 41.7254 73.8322C41.758 73.2175 41.7743 72.6998 41.7743 72.2792V62.3301C41.4157 62.3624 41.1059 62.508 40.8451 62.7668C40.6168 63.0257 40.5027 63.3331 40.5027 63.689V63.7375C40.4701 64.2228 40.3397 64.6434 40.1114 64.9993C39.9158 65.3229 39.6224 65.6141 39.2311 65.8729C38.8398 66.0994 38.2692 66.2127 37.5193 66.2127V60.0976H46.3228ZM33.7045 58.6901C33.7045 58.496 33.6881 58.3019 33.6555 58.1077C33.6555 57.9136 33.6555 57.7357 33.6555 57.5739V56.4576C33.6229 55.7458 33.6066 55.0664 33.6066 54.4193C33.6066 53.7722 33.5903 53.1574 33.5577 52.575C33.5251 52.2838 33.5088 52.025 33.5088 51.7985C33.5088 51.5397 33.4925 51.2808 33.4599 51.022C33.4599 50.7955 33.4436 50.5852 33.411 50.3911C33.411 50.1646 33.411 49.9705 33.411 49.8087C33.411 49.6469 33.3947 49.5013 33.3621 49.3719C33.3621 49.2425 33.3621 49.1292 33.3621 49.0322V48.7895C33.3295 48.7895 33.3132 48.8057 33.3132 48.838V49.0322C33.3132 49.1292 33.2969 49.2425 33.2643 49.3719C33.2643 49.5013 33.2643 49.6469 33.2643 49.8087C33.2643 49.9705 33.248 50.1646 33.2154 50.3911C33.2154 50.5852 33.2154 50.7955 33.2154 51.022C33.1828 51.2808 33.1665 51.5397 33.1665 51.7985C33.1665 52.025 33.1502 52.2838 33.1176 52.575C33.0849 53.1574 33.0686 53.7722 33.0686 54.4193C33.0686 55.0664 33.0523 55.7458 33.0197 56.4576V57.5739C33.0197 57.7357 33.0034 57.9136 32.9708 58.1077C32.9708 58.3019 32.9708 58.496 32.9708 58.6901V63.2036C32.9708 63.3007 32.9708 63.3978 32.9708 63.4948C33.0034 63.5919 33.0197 63.6728 33.0197 63.7375V65.3876C33.0197 65.7435 33.0197 66.0994 33.0197 66.4553C33.0523 66.7789 33.0686 67.1024 33.0686 67.426C33.0686 67.7819 33.0686 68.1216 33.0686 68.4451C33.1012 68.7363 33.1176 69.0114 33.1176 69.2702C33.1502 69.5614 33.1665 69.8364 33.1665 70.0952C33.1665 70.3541 33.1828 70.5967 33.2154 70.8232C33.2154 71.0821 33.2154 71.3086 33.2154 71.5027C33.248 71.6968 33.2643 71.8748 33.2643 72.0365C33.2643 72.1983 33.2643 72.3439 33.2643 72.4733C33.2969 72.6028 33.3132 72.716 33.3132 72.8131V73.0557C33.3132 73.0881 33.3295 73.1043 33.3621 73.1043V72.8131C33.3621 72.716 33.3621 72.6028 33.3621 72.4733C33.3947 72.3439 33.411 72.1983 33.411 72.0365C33.411 71.8748 33.411 71.6968 33.411 71.5027C33.4436 71.3086 33.4599 71.0821 33.4599 70.8232C33.4925 70.5967 33.5088 70.3541 33.5088 70.0952C33.5088 69.8364 33.5251 69.5614 33.5577 69.2702C33.5577 69.0114 33.5577 68.7363 33.5577 68.4451C33.5903 68.1216 33.6066 67.7819 33.6066 67.426C33.6066 67.1024 33.6066 66.7789 33.6066 66.4553C33.6392 66.0994 33.6555 65.7435 33.6555 65.3876V64.3199C33.6555 64.061 33.6718 63.8669 33.7045 63.7375V58.6901ZM44.3665 65.7273C44.3339 65.4038 44.3176 65.1126 44.3176 64.8537C44.3176 64.5625 44.3012 64.2875 44.2686 64.0287C44.236 63.5434 44.1871 63.1389 44.1219 62.8154C44.1219 62.7507 44.1056 62.686 44.073 62.6213C44.073 62.5565 44.073 62.508 44.073 62.4757V62.3301L44.0241 62.3786V62.4757C44.0241 62.508 44.0078 62.5565 43.9752 62.6213C43.9752 62.686 43.9752 62.7507 43.9752 62.8154C43.91 63.1389 43.8611 63.5434 43.8285 64.0287C43.7959 64.2875 43.7796 64.5625 43.7796 64.8537C43.7796 65.1126 43.7633 65.4038 43.7307 65.7273V66.2127C43.7307 66.3097 43.7143 66.4068 43.6817 66.5038C43.6817 66.5686 43.6817 66.6333 43.6817 66.698V68.7363C43.6817 68.8334 43.698 68.9143 43.7307 68.979V69.707C43.7307 69.8688 43.7307 70.0144 43.7307 70.1438C43.7633 70.2732 43.7796 70.4188 43.7796 70.5806C43.7796 70.7423 43.7796 70.8879 43.7796 71.0174C43.8122 71.1468 43.8285 71.2762 43.8285 71.4056C43.8611 71.535 43.8774 71.6645 43.8774 71.7939C43.8774 71.8909 43.8937 71.988 43.9263 72.0851C43.9263 72.1821 43.9263 72.2792 43.9263 72.3763C43.9589 72.4733 43.9752 72.5542 43.9752 72.6189C43.9752 72.6836 43.9752 72.7483 43.9752 72.8131C44.0078 72.8778 44.0241 72.9263 44.0241 72.9587V73.0557C44.0241 73.0881 44.0404 73.1043 44.073 73.1043V72.9587C44.073 72.9263 44.073 72.8778 44.073 72.8131C44.1056 72.7483 44.1219 72.6836 44.1219 72.6189C44.1219 72.5542 44.1219 72.4733 44.1219 72.3763C44.1545 72.2792 44.1708 72.1821 44.1708 72.0851C44.2034 71.988 44.2197 71.8909 44.2197 71.7939C44.2197 71.6645 44.236 71.535 44.2686 71.4056C44.2686 71.2762 44.2686 71.1468 44.2686 71.0174C44.3012 70.8879 44.3176 70.7423 44.3176 70.5806C44.3176 70.4188 44.3176 70.2732 44.3176 70.1438C44.3502 70.0144 44.3665 69.8688 44.3665 69.707V69.2217C44.3665 69.0922 44.3828 69.0114 44.4154 68.979V66.698C44.4154 66.6333 44.3991 66.5686 44.3665 66.5038C44.3665 66.4068 44.3665 66.3097 44.3665 66.2127V65.7273Z" fill="#F4EDE8"/>
<path d="M64.0903 61.0197C64.6446 61.0197 65.101 61.1329 65.4597 61.3594C65.101 61.5859 64.7913 61.8933 64.5304 62.2815C64.3022 62.6698 64.1555 63.0904 64.0903 63.5434V70.8718C64.0577 71.9071 63.8294 72.8778 63.4055 73.7837C63.0143 74.6573 62.4763 75.4338 61.7916 76.1133C61.1069 76.7604 60.308 77.278 59.3951 77.6663C58.4821 78.0546 57.5039 78.2487 56.4606 78.2487C55.4172 78.2487 54.439 78.0546 53.5261 77.6663C52.6131 77.278 51.8143 76.7604 51.1296 76.1133C50.4448 75.4338 49.8906 74.6573 49.4667 73.7837C49.0754 72.8778 48.8635 71.9071 48.8309 70.8718V63.5434C48.7331 62.5404 48.2766 61.8124 47.4614 61.3594C47.8201 61.1329 48.2766 61.0197 48.8309 61.0197V51.6529C48.8635 50.6499 49.0754 49.6955 49.4667 48.7895C49.8906 47.8836 50.4448 47.1071 51.1296 46.46C51.8143 45.7805 52.6131 45.2466 53.5261 44.8584C54.439 44.4701 55.4172 44.276 56.4606 44.276C57.5039 44.276 58.4821 44.4701 59.3951 44.8584C60.308 45.2466 61.1069 45.7805 61.7916 46.46C62.4763 47.1071 63.0143 47.8836 63.4055 48.7895C63.8294 49.6955 64.0577 50.6499 64.0903 51.6529V61.0197ZM51.4719 59.2725C51.4719 59.1107 51.4556 58.9651 51.423 58.8357C51.423 58.6739 51.423 58.5122 51.423 58.3504V57.4283C51.3904 56.8135 51.3741 56.2312 51.3741 55.6811C51.3741 55.1311 51.3578 54.6134 51.3252 54.1281C51.2926 53.9016 51.2763 53.6751 51.2763 53.4486C51.2763 53.2221 51.26 53.0118 51.2274 52.8177C51.2274 52.6236 51.2111 52.4456 51.1785 52.2838C51.1785 52.1221 51.1785 51.9765 51.1785 51.8471C51.1785 51.6853 51.1622 51.5559 51.1296 51.4588C51.1296 51.3294 51.1296 51.2323 51.1296 51.1676V50.9249C51.097 50.9249 51.0807 50.9411 51.0807 50.9735V51.1676C51.0807 51.2323 51.0644 51.3294 51.0317 51.4588C51.0317 51.5559 51.0317 51.6853 51.0317 51.8471C51.0317 51.9765 51.0154 52.1221 50.9828 52.2838C50.9828 52.4456 50.9828 52.6236 50.9828 52.8177C50.9502 53.0118 50.9339 53.2221 50.9339 53.4486C50.9339 53.6751 50.9176 53.9016 50.885 54.1281C50.8524 54.6134 50.8361 55.1311 50.8361 55.6811C50.8361 56.2312 50.8198 56.8135 50.7872 57.4283V58.3504C50.7872 58.5122 50.7709 58.6739 50.7383 58.8357C50.7383 58.9651 50.7383 59.1107 50.7383 59.2725V63.1066C50.7383 63.3331 50.7546 63.4948 50.7872 63.5919V64.9993C50.7872 65.2905 50.7872 65.5817 50.7872 65.8729C50.8198 66.1641 50.8361 66.4391 50.8361 66.698C50.8361 66.9892 50.8361 67.2642 50.8361 67.523C50.8687 67.7495 50.885 67.9922 50.885 68.251C50.9176 68.5099 50.9339 68.7525 50.9339 68.979C50.9339 69.1731 50.9502 69.3673 50.9828 69.5614C50.9828 69.7555 50.9828 69.9335 50.9828 70.0952C51.0154 70.257 51.0317 70.4188 51.0317 70.5806C51.0317 70.7423 51.0317 70.8879 51.0317 71.0174C51.0644 71.1144 51.0807 71.1953 51.0807 71.26V71.4056C51.0807 71.438 51.097 71.4541 51.1296 71.4541V71.26C51.1296 71.1953 51.1296 71.1144 51.1296 71.0174C51.1622 70.8879 51.1785 70.7423 51.1785 70.5806C51.1785 70.4188 51.1785 70.257 51.1785 70.0952C51.2111 69.9335 51.2274 69.7555 51.2274 69.5614C51.26 69.3673 51.2763 69.1731 51.2763 68.979C51.2763 68.7525 51.2926 68.5099 51.3252 68.251C51.3252 67.9922 51.3252 67.7495 51.3252 67.523C51.3578 67.2642 51.3741 66.9892 51.3741 66.698C51.3741 66.4391 51.3741 66.1641 51.3741 65.8729C51.4067 65.5817 51.423 65.2905 51.423 64.9993V63.5919C51.4556 63.4948 51.4719 63.3331 51.4719 63.1066V59.2725ZM59.5418 51.8471C59.5418 51.4264 59.5255 50.9088 59.4929 50.294C59.4603 49.6793 59.3462 49.0969 59.1505 48.5469C58.9549 47.9968 58.6451 47.5277 58.2213 47.1394C57.83 46.7188 57.2431 46.5085 56.4606 46.5085C55.678 46.5085 55.0748 46.7188 54.651 47.1394C54.2597 47.5277 53.9662 47.9968 53.7706 48.5469C53.575 49.0969 53.4609 49.6793 53.4283 50.294C53.3956 50.9088 53.3793 51.4264 53.3793 51.8471V61.0197C53.9336 61.0197 54.3901 61.1329 54.7488 61.3594C53.9336 61.8124 53.4772 62.5404 53.3793 63.5434V70.6776C53.3793 71.0982 53.3956 71.6159 53.4283 72.2307C53.4609 72.8131 53.575 73.3954 53.7706 73.9778C53.9662 74.5279 54.2597 74.997 54.651 75.3853C55.0748 75.7735 55.678 75.9677 56.4606 75.9677C57.2431 75.9677 57.83 75.7735 58.2213 75.3853C58.6451 74.997 58.9549 74.5279 59.1505 73.9778C59.3462 73.3954 59.4603 72.8131 59.4929 72.2307C59.5255 71.6159 59.5418 71.0982 59.5418 70.6776V63.5434C59.4766 62.5727 59.0201 61.8447 58.1724 61.3594C58.531 61.1329 58.9875 61.0197 59.5418 61.0197V51.8471ZM62.1828 59.2725C62.1828 59.1107 62.1828 58.9651 62.1828 58.8357C62.1828 58.6739 62.1665 58.5122 62.1339 58.3504V57.4283C62.1339 56.8135 62.1176 56.2312 62.085 55.6811C62.085 55.1311 62.0687 54.6134 62.0361 54.1281C62.0035 53.9016 61.9872 53.6751 61.9872 53.4486C61.9872 53.2221 61.9709 53.0118 61.9383 52.8177C61.9383 52.6236 61.922 52.4456 61.8894 52.2838C61.8894 52.1221 61.8894 51.9765 61.8894 51.8471C61.8894 51.6853 61.8731 51.5559 61.8405 51.4588C61.8405 51.3294 61.8405 51.2323 61.8405 51.1676V50.9249C61.8079 50.9249 61.7916 50.9411 61.7916 50.9735V51.1676C61.7916 51.2323 61.7916 51.3294 61.7916 51.4588C61.7916 51.5559 61.7753 51.6853 61.7427 51.8471C61.7427 51.9765 61.7264 52.1221 61.6938 52.2838C61.6938 52.4456 61.6938 52.6236 61.6938 52.8177C61.6612 53.0118 61.6448 53.2221 61.6448 53.4486C61.6448 53.6751 61.6285 53.9016 61.5959 54.1281C61.5633 54.6134 61.547 55.1311 61.547 55.6811C61.547 56.2312 61.5307 56.8135 61.4981 57.4283V59.2725C61.4655 59.5961 61.4492 59.9196 61.4492 60.2432C61.4492 60.5667 61.4492 60.8903 61.4492 61.2138C61.4492 61.5374 61.4492 61.8609 61.4492 62.1845C61.4492 62.4757 61.4655 62.783 61.4981 63.1066V64.9993C61.4981 65.2905 61.4981 65.5817 61.4981 65.8729C61.5307 66.1641 61.547 66.4391 61.547 66.698C61.547 66.9892 61.547 67.2642 61.547 67.523C61.5796 67.7495 61.5959 67.9922 61.5959 68.251C61.6285 68.5099 61.6448 68.7525 61.6448 68.979C61.6448 69.1731 61.6612 69.3673 61.6938 69.5614C61.6938 69.7555 61.6938 69.9335 61.6938 70.0952C61.7264 70.257 61.7427 70.4188 61.7427 70.5806C61.7753 70.7423 61.7916 70.8879 61.7916 71.0174C61.7916 71.1144 61.7916 71.1953 61.7916 71.26V71.4056C61.7916 71.438 61.8079 71.4541 61.8405 71.4541V71.26C61.8405 71.1953 61.8405 71.1144 61.8405 71.0174C61.8731 70.8879 61.8894 70.7423 61.8894 70.5806C61.8894 70.4188 61.8894 70.257 61.8894 70.0952C61.922 69.9335 61.9383 69.7555 61.9383 69.5614C61.9709 69.3673 61.9872 69.1731 61.9872 68.979C61.9872 68.7525 62.0035 68.5099 62.0361 68.251C62.0361 67.9922 62.0361 67.7495 62.0361 67.523C62.0687 67.2642 62.085 66.9892 62.085 66.698C62.085 66.4391 62.085 66.1641 62.085 65.8729C62.1176 65.5817 62.1339 65.2905 62.1339 64.9993V64.0772C62.1339 64.0125 62.1339 63.9316 62.1339 63.8346C62.1665 63.7375 62.1828 63.6566 62.1828 63.5919V59.2725Z" fill="#F4EDE8"/>
<path d="M82.2398 54.759C82.2398 56.215 81.8812 57.5253 81.1638 58.6901C80.4465 59.8549 79.4847 60.7608 78.2783 61.4079C78.8652 61.8609 79.4031 62.3948 79.8922 63.0095C80.3813 63.5919 80.7889 64.239 81.1149 64.9508C81.4736 65.6626 81.7507 66.3906 81.9464 67.1348C82.142 67.8789 82.2398 68.6069 82.2398 69.3187V72.4248C82.2072 73.4602 81.9953 74.4308 81.604 75.3367C81.2128 76.2103 80.6748 76.9868 79.99 77.6663C79.3053 78.3134 78.5065 78.8311 77.5935 79.2193C76.6806 79.64 75.7024 79.8503 74.659 79.8503H70.0617C69.8334 79.8503 69.6378 79.7694 69.4748 79.6076C69.3443 79.4458 69.2791 79.2517 69.2791 79.0252C69.2791 79.2517 69.1976 79.4458 69.0346 79.6076C68.8716 79.7694 68.6922 79.8503 68.4966 79.8503H65.9045C65.9045 79.5591 65.9534 79.3488 66.0512 79.2193C66.1816 79.0899 66.312 78.9443 66.4424 78.7825C66.5729 78.6531 66.687 78.459 66.7848 78.2002C66.9152 77.9413 66.9804 77.5369 66.9804 76.9868V63.4463C66.8826 62.4757 66.4261 61.7638 65.611 61.3109C66.0349 61.052 66.4914 60.9226 66.9804 60.9226V44.9555C66.9804 44.4054 66.9152 44.001 66.7848 43.7421C66.687 43.4833 66.5729 43.2892 66.4424 43.1598C66.312 42.998 66.1816 42.8524 66.0512 42.723C65.9534 42.5935 65.9045 42.3832 65.9045 42.092H68.4966C68.6922 42.092 68.8716 42.1729 69.0346 42.3347C69.1976 42.4641 69.2791 42.6421 69.2791 42.8686C69.2791 42.3509 69.54 42.092 70.0617 42.092H74.659C75.7024 42.092 76.6806 42.2862 77.5935 42.6744C78.5065 43.0627 79.3053 43.5965 79.99 44.276C80.6748 44.9231 81.2128 45.6996 81.604 46.6056C81.9953 47.5115 82.2072 48.466 82.2398 49.469V54.759ZM69.6215 58.3504C69.6215 58.1239 69.6052 57.9136 69.5726 57.7195C69.5726 57.493 69.5726 57.2827 69.5726 57.0886V55.8267C69.54 54.9855 69.5237 54.1928 69.5237 53.4486C69.5237 52.7045 69.5074 52.0088 69.4748 51.3617C69.4422 51.0058 69.4259 50.6823 69.4259 50.3911C69.4259 50.0999 69.4095 49.8249 69.3769 49.566C69.3769 49.3072 69.3606 49.0645 69.328 48.838C69.328 48.5792 69.328 48.3689 69.328 48.2071C69.328 48.013 69.3117 47.835 69.2791 47.6733C69.2791 47.5115 69.2791 47.3821 69.2791 47.285V46.9938C69.2465 47.0262 69.2302 47.0585 69.2302 47.0909V47.285C69.2302 47.3821 69.2139 47.5115 69.1813 47.6733C69.1813 47.835 69.1813 48.013 69.1813 48.2071C69.1813 48.3689 69.165 48.5792 69.1324 48.838C69.1324 49.0645 69.1324 49.3072 69.1324 49.566C69.0998 49.8249 69.0835 50.0999 69.0835 50.3911C69.0835 50.6823 69.0672 51.0058 69.0346 51.3617C69.002 52.0088 68.9857 52.7045 68.9857 53.4486C68.9857 54.1928 68.9694 54.9855 68.9368 55.8267V57.0886C68.9368 57.2827 68.9368 57.493 68.9368 57.7195C68.9368 57.9136 68.9205 58.1239 68.8879 58.3504V63.5434C68.8879 63.6728 68.8879 63.786 68.8879 63.8831C68.9205 63.9802 68.9368 64.0934 68.9368 64.2228V66.0671C68.9368 66.4877 68.9368 66.9083 68.9368 67.3289C68.9694 67.7172 68.9857 68.0892 68.9857 68.4451C68.9857 68.801 68.9857 69.1569 68.9857 69.5129C69.0183 69.8688 69.0346 70.2247 69.0346 70.5806C69.0672 70.7423 69.0835 70.9041 69.0835 71.0659C69.0835 71.1953 69.0835 71.3409 69.0835 71.5027C69.0835 71.6645 69.0835 71.8101 69.0835 71.9395C69.1161 72.0689 69.1324 72.1983 69.1324 72.3277C69.1324 72.5866 69.1324 72.8454 69.1324 73.1043C69.165 73.3307 69.1813 73.541 69.1813 73.7352C69.1813 73.9293 69.1813 74.1073 69.1813 74.269C69.2139 74.3984 69.2302 74.5117 69.2302 74.6088V74.8514C69.2302 74.8838 69.2465 74.9161 69.2791 74.9485V74.6088C69.2791 74.5117 69.2791 74.3984 69.2791 74.269C69.3117 74.1073 69.328 73.9293 69.328 73.7352C69.328 73.541 69.328 73.3307 69.328 73.1043C69.3606 72.8454 69.3769 72.5866 69.3769 72.3277C69.4095 72.1983 69.4259 72.0689 69.4259 71.9395C69.4259 71.8101 69.4259 71.6645 69.4259 71.5027C69.4259 71.3409 69.4259 71.1953 69.4259 71.0659C69.4585 70.9041 69.4748 70.7423 69.4748 70.5806C69.4748 70.2247 69.4748 69.8688 69.4748 69.5129C69.5074 69.1569 69.5237 68.801 69.5237 68.4451C69.5237 68.0892 69.5237 67.7172 69.5237 67.3289C69.5563 66.9083 69.5726 66.4877 69.5726 66.0671V64.8537C69.5726 64.5625 69.5889 64.3522 69.6215 64.2228V58.3504ZM79.6966 71.4541C79.664 71.5512 79.6477 71.713 79.6477 71.9395V72.8131C79.6477 72.9748 79.6314 73.1204 79.5988 73.2499C79.5988 73.3793 79.5988 73.5087 79.5988 73.6381C79.5988 73.7675 79.5825 73.8808 79.5499 73.9778C79.5499 74.0749 79.5499 74.172 79.5499 74.269V74.4146C79.5173 74.447 79.501 74.4955 79.501 74.5602V74.8029C79.4684 74.8352 79.4521 74.8676 79.4521 74.9V74.997C79.4521 75.0294 79.4358 75.0617 79.4031 75.0941C79.4031 75.0941 79.4031 75.1103 79.4031 75.1426C79.4031 75.175 79.3868 75.2073 79.3542 75.2397H79.4031C79.4031 75.2397 79.4194 75.2073 79.4521 75.1426C79.4521 75.1426 79.4684 75.1103 79.501 75.0455C79.5336 75.0132 79.5499 74.9808 79.5499 74.9485C79.5825 74.9161 79.5988 74.8838 79.5988 74.8514C79.6314 74.8191 79.6477 74.7867 79.6477 74.7544C79.6803 74.722 79.6966 74.6735 79.6966 74.6088C79.7618 74.544 79.7944 74.4632 79.7944 74.3661C79.8596 74.2367 79.9248 74.0102 79.99 73.6866C80.0553 73.4925 80.0879 73.3631 80.0879 73.2984C80.1205 73.2337 80.1368 73.169 80.1368 73.1043C80.1368 73.0072 80.1531 72.9263 80.1857 72.8616C80.1857 72.7969 80.1857 72.7322 80.1857 72.6675C80.2183 72.5704 80.2346 72.4895 80.2346 72.4248C80.2672 72.3277 80.2835 72.1821 80.2835 71.988C80.3161 71.8262 80.3324 71.6645 80.3324 71.5027C80.3324 71.3409 80.3487 71.1791 80.3813 71.0174V68.979C80.3813 68.8172 80.365 68.6554 80.3324 68.4937C80.3324 68.3319 80.3161 68.1701 80.2835 68.0084C80.2835 67.8142 80.2672 67.6686 80.2346 67.5716C80.2346 67.5068 80.2183 67.4421 80.1857 67.3774C80.1857 67.2804 80.1857 67.1995 80.1857 67.1348C80.1531 67.0701 80.1368 67.0053 80.1368 66.9406C80.1368 66.8436 80.1205 66.7627 80.0879 66.698C80.0879 66.6333 80.0716 66.5686 80.039 66.5038C80.039 66.4391 80.039 66.3744 80.039 66.3097C79.9737 66.1156 79.9411 66.0023 79.9411 65.97C79.9085 65.8729 79.8596 65.7597 79.7944 65.6303C79.7944 65.5332 79.7618 65.4523 79.6966 65.3876C79.6966 65.2905 79.664 65.2096 79.5988 65.1449C79.5336 65.0155 79.4847 64.9185 79.4521 64.8537C79.4194 64.8214 79.4031 64.789 79.4031 64.7567H79.3542C79.3542 64.7567 79.3705 64.789 79.4031 64.8537C79.4031 64.8861 79.4031 64.9185 79.4031 64.9508C79.4358 64.9508 79.4521 64.967 79.4521 64.9993C79.4521 65.064 79.4684 65.1288 79.501 65.1935V65.4361C79.5336 65.5008 79.5499 65.5817 79.5499 65.6788C79.5499 65.8406 79.5662 65.9538 79.5988 66.0185V66.3582C79.6314 66.4877 79.6477 66.6171 79.6477 66.7465C79.6477 66.8759 79.6477 67.0215 79.6477 67.1833V67.6201C79.6477 67.6848 79.6477 67.7657 79.6477 67.8628C79.6803 67.9275 79.6966 67.9922 79.6966 68.0569V71.4541ZM77.6914 69.3187C77.6914 68.8981 77.6751 68.2995 77.6424 67.523C77.6098 66.7465 77.4957 65.97 77.3001 65.1935C77.1045 64.417 76.7947 63.7537 76.3708 63.2036C75.9796 62.6213 75.3927 62.3301 74.6101 62.3301H72.8494C72.4908 62.3301 72.181 62.4595 71.9202 62.7183C71.6593 62.9772 71.5289 63.2845 71.5289 63.6404V76.2589C71.5289 76.6148 71.6593 76.9221 71.9202 77.181C72.181 77.4075 72.4908 77.5369 72.8494 77.5692H74.6101C75.3927 77.5692 75.9796 77.3751 76.3708 76.9868C76.7947 76.5662 77.1045 76.0809 77.3001 75.5309C77.4957 74.9808 77.6098 74.3985 77.6424 73.7837C77.6751 73.169 77.6914 72.6513 77.6914 72.2307V69.3187ZM77.6914 49.6631C77.6914 49.2425 77.6751 48.741 77.6424 48.1586C77.6098 47.5438 77.4957 46.9615 77.3001 46.4114C77.1045 45.8614 76.7947 45.3922 76.3708 45.004C75.9796 44.5834 75.3927 44.3731 74.6101 44.3731H72.8494C72.4908 44.3731 72.181 44.5025 71.9202 44.7613C71.6593 45.0202 71.5289 45.3275 71.5289 45.6834V58.7387C71.5289 59.0946 71.6593 59.4019 71.9202 59.6608C72.181 59.9196 72.4908 60.049 72.8494 60.049H74.6101C75.3927 60.049 75.9796 59.8549 76.3708 59.4666C76.7947 59.0784 77.1045 58.6092 77.3001 58.0592C77.4957 57.4768 77.6098 56.8944 77.6424 56.312C77.6751 55.6973 77.6914 55.1796 77.6914 54.759V49.6631ZM79.8922 56.0694C79.9574 55.8752 79.99 55.7458 79.99 55.6811C80.0553 55.5517 80.0879 55.4223 80.0879 55.2929C80.1205 55.2281 80.1368 55.1634 80.1368 55.0987C80.1368 55.0017 80.1531 54.9208 80.1857 54.8561C80.1857 54.7914 80.1857 54.7266 80.1857 54.6619C80.2183 54.5649 80.2346 54.4678 80.2346 54.3707C80.2672 54.2737 80.2835 54.1119 80.2835 53.8854C80.3161 53.7236 80.3324 53.5619 80.3324 53.4001C80.3324 53.2383 80.3487 53.0765 80.3813 52.9148V51.8471C80.3813 51.4912 80.3813 51.1514 80.3813 50.8279C80.3813 50.472 80.365 50.1322 80.3324 49.8087C80.2998 49.7116 80.2835 49.6307 80.2835 49.566C80.2835 49.469 80.2672 49.3881 80.2346 49.3234C80.2346 49.0969 80.2183 48.9351 80.1857 48.838C80.1531 48.6763 80.1205 48.5307 80.0879 48.4013C80.0879 48.2718 80.0716 48.1424 80.039 48.013C79.9737 47.8189 79.9411 47.6894 79.9411 47.6247C79.8759 47.4953 79.8433 47.3983 79.8433 47.3335C79.7781 47.2041 79.7292 47.1071 79.6966 47.0423C79.6966 46.9453 79.664 46.8644 79.5988 46.7997C79.5662 46.7026 79.5173 46.5894 79.4521 46.46L79.3542 46.3629V46.4114C79.3542 46.4438 79.3542 46.46 79.3542 46.46C79.3868 46.46 79.4031 46.4761 79.4031 46.5085C79.4358 46.5408 79.4521 46.5894 79.4521 46.6541C79.4521 46.7188 79.4684 46.7835 79.501 46.8482V47.0909C79.5336 47.1556 79.5499 47.2527 79.5499 47.3821C79.5499 47.4468 79.5499 47.5115 79.5499 47.5762C79.5825 47.6086 79.5988 47.6571 79.5988 47.7218V48.0615C79.6314 48.1909 79.6477 48.3204 79.6477 48.4498C79.6477 48.5792 79.6477 48.7248 79.6477 48.8866V49.3719C79.6477 49.4366 79.6477 49.5175 79.6477 49.6146C79.6803 49.6793 79.6966 49.744 79.6966 49.8087V53.4001C79.664 53.4972 79.6477 53.6589 79.6477 53.8854V54.8075C79.6477 54.9693 79.6314 55.1149 79.5988 55.2443C79.5988 55.3737 79.5988 55.5032 79.5988 55.6326C79.5988 55.762 79.5825 55.8914 79.5499 56.0208C79.5499 56.1179 79.5499 56.215 79.5499 56.312C79.5499 56.4738 79.5336 56.5709 79.501 56.6032V56.8944C79.4684 56.8944 79.4521 56.9268 79.4521 56.9915V57.0886C79.4521 57.1209 79.4358 57.1533 79.4031 57.1856C79.4031 57.1856 79.4031 57.2018 79.4031 57.2342C79.4031 57.2665 79.3868 57.2989 79.3542 57.3312L79.4521 57.2342C79.4521 57.2018 79.4521 57.1856 79.4521 57.1856C79.4847 57.1533 79.501 57.1209 79.501 57.0886C79.5336 57.0886 79.5499 57.0562 79.5499 56.9915C79.5825 56.9915 79.5988 56.9591 79.5988 56.8944C79.6314 56.8944 79.6477 56.8621 79.6477 56.7974C79.6803 56.765 79.6966 56.7165 79.6966 56.6518C79.7618 56.5871 79.7944 56.5062 79.7944 56.4091C79.8596 56.215 79.8922 56.1017 79.8922 56.0694Z" fill="#F4EDE8"/>
<path d="M100.739 75.3367C100.869 75.8868 101.016 76.2912 101.179 76.5501C101.342 76.8089 101.505 77.0192 101.668 77.181C101.831 77.3428 101.978 77.4883 102.108 77.6178C102.239 77.7472 102.337 77.9575 102.402 78.2487H99.8098C99.5815 78.2487 99.3696 78.1678 99.174 78.006C99.0109 77.8442 98.9131 77.6501 98.8805 77.4236C98.9131 77.6501 98.8642 77.8442 98.7338 78.006C98.6033 78.1678 98.4403 78.2487 98.2447 78.2487H95.6525C95.5873 77.9575 95.6036 77.7472 95.7015 77.6178C95.7993 77.4883 95.8971 77.3589 95.9949 77.2295C96.0927 77.0677 96.1742 76.8574 96.2394 76.5986C96.3047 76.3074 96.2884 75.8706 96.1905 75.2882V75.2397L95.1146 69.7555C95.0493 69.432 94.87 69.1569 94.5766 68.9305C94.2831 68.6716 93.9571 68.5422 93.5984 68.5422H90.2237C89.8651 68.5422 89.539 68.6716 89.2456 68.9305C88.9521 69.1569 88.7728 69.432 88.7076 69.7555L87.6805 75.2397V75.2882C87.5827 75.8706 87.5501 76.3074 87.5827 76.5986C87.6479 76.8574 87.7294 77.0677 87.8272 77.2295C87.9576 77.3589 88.0555 77.4883 88.1207 77.6178C88.2185 77.7472 88.2511 77.9575 88.2185 78.2487H85.6263C85.3981 78.2487 85.2188 78.1678 85.0884 78.006C84.9579 77.8442 84.909 77.6501 84.9416 77.4236C84.909 77.6501 84.8112 77.8442 84.6482 78.006C84.4851 78.1678 84.2895 78.2487 84.0613 78.2487H81.4691C81.5017 77.9575 81.5833 77.7472 81.7137 77.6178C81.8441 77.4883 81.9908 77.3428 82.1539 77.181C82.3169 77.0192 82.4799 76.8089 82.6429 76.5501C82.806 76.2912 82.9527 75.8868 83.0831 75.3367L85.284 63.5434C85.3492 63.0904 85.3003 62.6698 85.1373 62.2815C84.9742 61.8933 84.7134 61.5859 84.3547 61.3594C84.8764 61.1329 85.3492 61.0197 85.7731 61.0197L88.4141 47.1879C88.5119 46.6379 88.5282 46.2335 88.463 45.9746C88.3978 45.6834 88.3163 45.4731 88.2185 45.3437C88.1207 45.1819 88.0229 45.0363 87.925 44.9069C87.8272 44.7775 87.8109 44.5672 87.8761 44.276H91.153C91.6421 44.3407 91.8866 44.6157 91.8866 45.1011C91.8866 44.8746 91.9518 44.6966 92.0822 44.5672C92.2453 44.4054 92.4246 44.3084 92.6202 44.276H95.946C96.0112 44.5672 95.9949 44.7775 95.8971 44.9069C95.8319 45.0363 95.7504 45.1819 95.6525 45.3437C95.5547 45.4731 95.4732 45.6834 95.408 45.9746C95.3428 46.2335 95.3591 46.6379 95.4569 47.1879L98.0491 61.0197C98.3099 61.0197 98.5544 61.052 98.7827 61.1167C99.0109 61.1815 99.2392 61.2623 99.4674 61.3594C98.7501 61.8124 98.4403 62.5404 98.5381 63.5434L100.739 75.3367ZM89.001 57.9621C89.0662 57.768 89.0988 57.5901 89.0988 57.4283C89.1314 57.2342 89.164 57.0562 89.1967 56.8944C89.3597 56.1503 89.4901 55.4546 89.5879 54.8075C89.6857 54.1281 89.7836 53.5133 89.8814 52.9633C89.9466 52.7045 89.9792 52.4456 89.9792 52.1868C90.0118 51.9279 90.0444 51.6691 90.077 51.4103C90.1096 51.1838 90.1422 50.9735 90.1748 50.7793C90.2074 50.5852 90.24 50.4073 90.2726 50.2455C90.3052 50.0837 90.3215 49.9381 90.3215 49.8087C90.3215 49.6469 90.3378 49.5175 90.3705 49.4204V49.2263L90.3215 49.4204C90.2889 49.5175 90.2563 49.6307 90.2237 49.7602C90.1911 49.8896 90.1585 50.0352 90.1259 50.197C90.0607 50.3587 90.0118 50.5529 89.9792 50.7793C89.9466 50.9735 89.8977 51.1676 89.8325 51.3617C89.7673 51.6206 89.702 51.8794 89.6368 52.1383C89.6042 52.3971 89.5553 52.6559 89.4901 52.9148C89.3271 53.4648 89.164 54.0634 89.001 54.7105C88.8706 55.3252 88.7239 56.0047 88.5608 56.7488C88.5608 56.943 88.5445 57.1209 88.5119 57.2827C88.4793 57.4445 88.4304 57.6224 88.3652 57.8165C88.3326 58.0107 88.3 58.2048 88.2674 58.3989C88.2348 58.5607 88.2022 58.7387 88.1696 58.9328C88.0718 59.2887 87.9739 59.6608 87.8761 60.049C87.8109 60.4373 87.7457 60.8256 87.6805 61.2138C87.6153 61.5697 87.5338 61.9418 87.436 62.3301C87.3707 62.7183 87.3055 63.0904 87.2403 63.4463C87.2077 63.5434 87.1914 63.6404 87.1914 63.7375C87.1914 63.8022 87.1751 63.8831 87.1425 63.9802C87.0773 64.239 87.0447 64.4331 87.0447 64.5625C86.9469 64.8861 86.8817 65.242 86.8491 65.6303C86.7838 65.9862 86.7186 66.3421 86.6534 66.698C86.5882 67.0539 86.5393 67.3774 86.5067 67.6686C86.4089 68.4128 86.3111 69.0275 86.2132 69.5129C86.148 69.7717 86.0991 70.0305 86.0665 70.2894C86.0339 70.5482 86.0013 70.8071 85.9687 71.0659C85.9035 71.2924 85.8546 71.5189 85.822 71.7453C85.822 71.9395 85.8057 72.1174 85.7731 72.2792C85.7405 72.441 85.7242 72.5866 85.7242 72.716C85.7242 72.8454 85.7079 72.9587 85.6753 73.0557C85.6753 73.1204 85.659 73.169 85.6263 73.2013C85.6263 73.2013 85.6263 73.2175 85.6263 73.2499V73.2984C85.659 73.2984 85.6753 73.2822 85.6753 73.2499C85.6753 73.1851 85.6916 73.1204 85.7242 73.0557C85.7568 72.991 85.7731 72.8939 85.7731 72.7645C85.8057 72.6028 85.8546 72.441 85.9198 72.2792C85.985 72.1174 86.0339 71.9395 86.0665 71.7453C86.1317 71.5512 86.1969 71.3409 86.2621 71.1144C86.3274 70.8879 86.3763 70.6453 86.4089 70.3864C86.4741 70.1276 86.523 69.8688 86.5556 69.6099C86.6208 69.3511 86.686 69.0761 86.7512 68.7849C86.8491 68.4613 86.9306 68.1378 86.9958 67.8142C87.061 67.4907 87.1262 67.1509 87.1914 66.795C87.2892 66.4391 87.387 66.0832 87.4849 65.7273C87.5175 65.5656 87.5501 65.4038 87.5827 65.242C87.6153 65.0479 87.6479 64.8699 87.6805 64.7081L87.8272 64.1258C87.8598 64.0287 87.8761 63.9316 87.8761 63.8346C87.8761 63.7375 87.8924 63.6404 87.925 63.5434C87.9902 63.1875 88.0718 62.8316 88.1696 62.4757C88.2674 62.0874 88.3489 61.6991 88.4141 61.3109C88.4793 60.955 88.5445 60.5829 88.6098 60.1946C88.675 59.8064 88.7402 59.4343 88.8054 59.0784C88.838 58.8843 88.8706 58.6901 88.9032 58.496C88.9358 58.3019 88.9684 58.1239 89.001 57.9621ZM93.1582 66.2612C93.5169 66.2288 93.794 66.0994 93.9897 65.8729C94.2179 65.6141 94.2994 65.3067 94.2342 64.9508L93.9408 63.5434C93.8103 63.0904 93.5821 62.6698 93.256 62.2815C92.9626 61.8933 92.6039 61.5859 92.1801 61.3594C92.5713 61.1329 92.9952 61.0197 93.4517 61.0197L91.8866 52.7206L90.3215 61.0197C90.7454 61.0197 91.1856 61.1329 91.6421 61.3594C91.1856 61.5859 90.7943 61.8933 90.4683 62.2815C90.1748 62.6698 89.9792 63.0904 89.8814 63.5434L89.6368 64.9508C89.5716 65.3067 89.6368 65.6141 89.8325 65.8729C90.0281 66.0994 90.2889 66.2288 90.615 66.2612H93.1582ZM98.098 73.0557C98.098 73.1204 98.098 73.169 98.098 73.2013C98.1306 73.2013 98.1469 73.2175 98.1469 73.2499V73.0557C98.1143 72.9587 98.098 72.8454 98.098 72.716C98.098 72.5866 98.0817 72.441 98.0491 72.2792C98.0164 72.1174 97.9838 71.9395 97.9512 71.7453C97.9512 71.5189 97.9186 71.2924 97.8534 71.0659C97.8208 70.8071 97.7882 70.5482 97.7556 70.2894C97.723 70.0305 97.6741 69.7717 97.6089 69.5129C97.5111 69.0275 97.4132 68.4128 97.3154 67.6686C97.2502 67.3774 97.185 67.0539 97.1198 66.698C97.0872 66.3421 97.0383 65.9862 96.9731 65.6303C96.9079 65.4361 96.8589 65.2582 96.8263 65.0964C96.8263 64.9346 96.7937 64.7567 96.7285 64.5625C96.7285 64.4331 96.6959 64.239 96.6307 63.9802C96.6307 63.8831 96.6144 63.8022 96.5818 63.7375C96.5818 63.6404 96.5818 63.5434 96.5818 63.4463C96.5166 63.0904 96.4351 62.7183 96.3373 62.3301C96.2721 61.9418 96.2068 61.5697 96.1416 61.2138C96.0764 60.8256 95.9949 60.4373 95.8971 60.049C95.8319 59.6608 95.7504 59.2887 95.6525 58.9328C95.6199 58.7387 95.5873 58.5607 95.5547 58.3989C95.5221 58.2048 95.4895 58.0107 95.4569 57.8165C95.3917 57.6224 95.3428 57.4445 95.3102 57.2827C95.2776 57.1209 95.245 56.943 95.2124 56.7488C95.0493 56.0047 94.8863 55.3252 94.7233 54.7105C94.5929 54.0634 94.4788 53.4648 94.3809 52.9148C94.3157 52.6559 94.2505 52.3971 94.1853 52.1383C94.1201 51.8794 94.0549 51.6206 93.9897 51.3617C93.9245 51.1676 93.8592 50.9735 93.794 50.7793C93.7614 50.5529 93.7125 50.3587 93.6473 50.197C93.6147 50.0352 93.5821 49.8896 93.5495 49.7602C93.5169 49.6307 93.4843 49.5175 93.4517 49.4204L93.4028 49.2263V49.4204C93.4354 49.5822 93.4843 49.8572 93.5495 50.2455C93.5495 50.4073 93.5658 50.5852 93.5984 50.7793C93.631 50.9735 93.6636 51.1838 93.6962 51.4103C93.7288 51.6691 93.7614 51.9279 93.794 52.1868C93.8266 52.4456 93.8755 52.7045 93.9408 52.9633C94.0386 53.5133 94.1364 54.1281 94.2342 54.8075C94.332 55.4546 94.4461 56.1503 94.5766 56.8944C94.6092 57.0562 94.6255 57.2342 94.6255 57.4283C94.6581 57.5901 94.707 57.768 94.7722 57.9621C94.8048 58.1239 94.8374 58.3019 94.87 58.496C94.9026 58.6901 94.9352 58.8843 94.9678 59.0784C95.033 59.4343 95.0983 59.8064 95.1635 60.1946C95.2613 60.5829 95.3428 60.955 95.408 61.3109C95.4732 61.6991 95.5547 62.0874 95.6525 62.4757C95.7504 62.8316 95.8319 63.1875 95.8971 63.5434C95.9297 63.6404 95.946 63.7375 95.946 63.8346C95.946 63.9316 95.9623 64.0287 95.9949 64.1258L96.1416 64.7081C96.1742 64.8699 96.2068 65.0479 96.2394 65.242C96.2721 65.4038 96.3047 65.5656 96.3373 65.7273C96.4351 66.0832 96.5166 66.4391 96.5818 66.795C96.647 67.1509 96.7122 67.4907 96.7774 67.8142C96.8427 68.1378 96.9079 68.4613 96.9731 68.7849C97.0709 69.0761 97.1524 69.3511 97.2176 69.6099C97.2828 69.8688 97.348 70.1276 97.4132 70.3864C97.4785 70.6453 97.5437 70.8879 97.6089 71.1144C97.7067 71.5674 97.8045 71.9557 97.9023 72.2792C97.9675 72.441 98.0001 72.6028 98.0001 72.7645C98.0328 72.8939 98.0654 72.991 98.098 73.0557Z" fill="#F4EDE8"/>
<path d="M121.259 80.287C121.618 80.3518 121.863 80.465 121.993 80.6268C122.156 80.7886 122.27 80.9503 122.335 81.1121C122.401 81.3062 122.433 81.5165 122.433 81.743C121.39 81.743 120.412 81.6136 119.499 81.3548C118.586 81.0959 117.771 80.6753 117.053 80.0929C116.369 79.5105 115.814 78.7502 115.39 77.8119C114.999 76.8736 114.804 75.725 114.804 74.3661V67.7172C114.804 67.2965 114.787 66.7789 114.755 66.1641C114.722 65.5494 114.608 64.967 114.412 64.417C114.217 63.8669 113.907 63.3978 113.483 63.0095C113.092 62.5889 112.505 62.3786 111.722 62.3786H109.717C109.424 62.4433 109.163 62.6051 108.935 62.8639C108.739 63.0904 108.641 63.3654 108.641 63.689V75.2882C108.641 75.8706 108.69 76.3074 108.788 76.5986C108.918 76.8574 109.049 77.0677 109.179 77.2295C109.31 77.3589 109.424 77.4883 109.521 77.6178C109.652 77.7472 109.717 77.9575 109.717 78.2487H107.125C106.929 78.2487 106.75 78.1678 106.587 78.006C106.424 77.8442 106.342 77.6663 106.342 77.4722C106.342 77.6663 106.261 77.8442 106.098 78.006C105.967 78.1678 105.788 78.2487 105.56 78.2487H103.017C103.017 77.9575 103.066 77.7472 103.163 77.6178C103.294 77.4883 103.424 77.3589 103.555 77.2295C103.685 77.0677 103.799 76.8574 103.897 76.5986C104.027 76.3397 104.093 75.9353 104.093 75.3853V63.5434C103.995 62.5404 103.538 61.8124 102.723 61.3594C103.082 61.1329 103.538 61.0197 104.093 61.0197V47.1394C104.093 46.5894 104.027 46.1849 103.897 45.9261C103.799 45.6673 103.685 45.4731 103.555 45.3437C103.424 45.1819 103.294 45.0363 103.163 44.9069C103.066 44.7775 103.017 44.5672 103.017 44.276H105.609C105.804 44.276 105.984 44.3569 106.147 44.5187C106.31 44.6481 106.391 44.826 106.391 45.0525C106.391 44.5348 106.652 44.276 107.174 44.276H111.771C112.815 44.276 113.793 44.4701 114.706 44.8584C115.619 45.2466 116.418 45.7805 117.102 46.46C117.787 47.1071 118.325 47.8836 118.716 48.7895C119.108 49.6955 119.319 50.6499 119.352 51.6529V54.8075C119.352 56.1664 119.026 57.4121 118.374 58.5445C117.722 59.677 116.841 60.5829 115.733 61.2623C116.841 61.9094 117.722 62.8154 118.374 63.9802C119.026 65.1126 119.352 66.3582 119.352 67.7172V74.172C119.352 74.8514 119.352 75.5471 119.352 76.2589C119.385 76.9383 119.466 77.5692 119.597 78.1516C119.727 78.7017 119.923 79.1708 120.184 79.5591C120.444 79.9473 120.803 80.19 121.259 80.287ZM116.809 53.9825C116.776 54.0472 116.76 54.1281 116.76 54.2251V55.3414C116.727 55.4708 116.711 55.6002 116.711 55.7297C116.711 55.8267 116.711 55.9238 116.711 56.0208C116.711 56.0856 116.695 56.1341 116.662 56.1664C116.662 56.1988 116.662 56.2473 116.662 56.312V56.6032C116.629 56.6679 116.613 56.7488 116.613 56.8459C116.613 56.9106 116.597 56.9753 116.564 57.04C116.564 57.1047 116.548 57.1533 116.515 57.1856V57.2827L116.466 57.3798C116.466 57.3798 116.499 57.3636 116.564 57.3312V57.2827L116.613 57.2342C116.646 57.2018 116.662 57.1856 116.662 57.1856C116.662 57.1533 116.678 57.1209 116.711 57.0886C116.744 57.0238 116.776 56.9591 116.809 56.8944C116.841 56.7974 116.874 56.7165 116.907 56.6518C116.939 56.5871 116.956 56.5547 116.956 56.5547C116.956 56.5223 116.972 56.4738 117.004 56.4091C117.037 56.3444 117.053 56.2959 117.053 56.2635C117.053 56.1988 117.07 56.1341 117.102 56.0694C117.135 56.0047 117.151 55.9561 117.151 55.9238C117.151 55.8914 117.167 55.8429 117.2 55.7782C117.2 55.7135 117.2 55.6649 117.2 55.6326C117.233 55.5679 117.249 55.5032 117.249 55.4385C117.282 55.309 117.298 55.1796 117.298 55.0502C117.331 54.9208 117.363 54.7914 117.396 54.6619C117.428 54.5649 117.445 54.4193 117.445 54.2251C117.445 54.1604 117.445 54.0957 117.445 54.031C117.477 53.9663 117.494 53.9016 117.494 53.8369V52.1383C117.494 51.9441 117.477 51.7985 117.445 51.7015V51.5073C117.445 51.4426 117.428 51.4103 117.396 51.4103C117.396 51.3779 117.396 51.3294 117.396 51.2647C117.396 51.1029 117.363 50.8602 117.298 50.5367C117.265 50.472 117.249 50.4073 117.249 50.3426C117.249 50.2778 117.233 50.2131 117.2 50.1484C117.2 50.1161 117.184 50.0999 117.151 50.0999C117.151 50.0675 117.151 50.0352 117.151 50.0028C117.151 49.9705 117.135 49.9543 117.102 49.9543C117.102 49.9219 117.102 49.8896 117.102 49.8572C117.07 49.7925 117.053 49.744 117.053 49.7116C117.053 49.6793 117.037 49.6307 117.004 49.566C116.972 49.5013 116.956 49.4528 116.956 49.4204C116.956 49.3881 116.939 49.3395 116.907 49.2748C116.874 49.2425 116.858 49.2101 116.858 49.1778C116.858 49.1454 116.841 49.1131 116.809 49.0807C116.744 48.9513 116.711 48.8866 116.711 48.8866C116.678 48.8542 116.662 48.838 116.662 48.838C116.662 48.8057 116.646 48.7733 116.613 48.741C116.581 48.7086 116.564 48.6763 116.564 48.6439C116.532 48.6116 116.515 48.5792 116.515 48.5469H116.466C116.466 48.5469 116.483 48.5792 116.515 48.6439V48.741C116.548 48.7733 116.564 48.838 116.564 48.9351C116.564 48.9675 116.564 48.9998 116.564 49.0322C116.597 49.0322 116.613 49.0645 116.613 49.1292C116.613 49.2263 116.629 49.3072 116.662 49.3719V49.6146C116.662 49.6793 116.662 49.7278 116.662 49.7602C116.695 49.7925 116.711 49.8411 116.711 49.9058C116.711 50.197 116.727 50.4234 116.76 50.5852V51.3617C116.793 51.5235 116.809 51.7823 116.809 52.1383V53.9825ZM106.734 58.9813C106.734 58.8195 106.717 58.6416 106.685 58.4475C106.685 58.2533 106.685 58.0592 106.685 57.8651V56.7974C106.652 56.0856 106.636 55.4061 106.636 54.759C106.636 54.1119 106.62 53.4972 106.587 52.9148C106.554 52.6559 106.538 52.3971 106.538 52.1383C106.538 51.8794 106.522 51.6368 106.489 51.4103C106.489 51.1514 106.473 50.9249 106.44 50.7308C106.44 50.5367 106.44 50.3587 106.44 50.197C106.44 50.0352 106.424 49.8896 106.391 49.7602C106.391 49.6307 106.391 49.5175 106.391 49.4204V49.1778C106.359 49.1778 106.342 49.194 106.342 49.2263V49.4204C106.342 49.5175 106.326 49.6307 106.294 49.7602C106.294 49.8896 106.294 50.0352 106.294 50.197C106.294 50.3587 106.277 50.5367 106.245 50.7308C106.245 50.9249 106.245 51.1514 106.245 51.4103C106.212 51.6368 106.196 51.8794 106.196 52.1383C106.196 52.3971 106.179 52.6559 106.147 52.9148C106.114 53.4972 106.098 54.1119 106.098 54.759C106.098 55.4061 106.082 56.0856 106.049 56.7974V57.8651C106.049 58.0592 106.033 58.2533 106 58.4475C106 58.6416 106 58.8195 106 58.9813V63.4948C106 63.7537 106.016 63.9478 106.049 64.0772V65.6788C106.049 66.0347 106.049 66.3906 106.049 66.7465C106.082 67.0701 106.098 67.3936 106.098 67.7172C106.098 68.0731 106.098 68.3966 106.098 68.6878C106.131 68.979 106.147 69.2702 106.147 69.5614C106.179 69.8526 106.196 70.1276 106.196 70.3864C106.196 70.6129 106.212 70.8556 106.245 71.1144C106.245 71.3409 106.245 71.5512 106.245 71.7453C106.277 71.9395 106.294 72.1174 106.294 72.2792C106.294 72.441 106.294 72.6028 106.294 72.7645C106.326 72.8939 106.342 72.991 106.342 73.0557V73.2984C106.342 73.3307 106.359 73.3469 106.391 73.3469V73.0557C106.391 72.991 106.391 72.8939 106.391 72.7645C106.424 72.6028 106.44 72.441 106.44 72.2792C106.44 72.1174 106.44 71.9395 106.44 71.7453C106.473 71.5512 106.489 71.3409 106.489 71.1144C106.522 70.8556 106.538 70.6129 106.538 70.3864C106.538 70.1276 106.554 69.8526 106.587 69.5614C106.587 69.2702 106.587 68.979 106.587 68.6878C106.62 68.3966 106.636 68.0731 106.636 67.7172C106.636 67.3936 106.636 67.0701 106.636 66.7465C106.669 66.3906 106.685 66.0347 106.685 65.6788V64.6111C106.685 64.3522 106.701 64.1743 106.734 64.0772V58.9813ZM114.804 51.8471C114.804 51.4264 114.787 50.9088 114.755 50.294C114.722 49.6793 114.608 49.0969 114.412 48.5469C114.217 47.9968 113.907 47.5277 113.483 47.1394C113.092 46.7188 112.505 46.5085 111.722 46.5085H109.962C109.603 46.5408 109.293 46.6864 109.032 46.9453C108.772 47.2041 108.641 47.5115 108.641 47.8674V58.7872C108.641 59.1431 108.772 59.4505 109.032 59.7093C109.293 59.9681 109.603 60.0976 109.962 60.0976H111.722C112.505 60.0976 113.092 59.9034 113.483 59.5152C113.907 59.1269 114.217 58.6578 114.412 58.1077C114.608 57.5253 114.722 56.943 114.755 56.3606C114.787 55.7458 114.804 55.2281 114.804 54.8075V51.8471ZM118.08 78.4428C118.08 78.4428 118.064 78.4266 118.032 78.3943L117.983 78.3458C117.95 78.281 117.917 78.2163 117.885 78.1516C117.885 78.0869 117.852 78.0222 117.787 77.9575C117.754 77.8604 117.722 77.7634 117.689 77.6663C117.657 77.5369 117.624 77.3913 117.591 77.2295C117.526 76.906 117.494 76.5986 117.494 76.3074C117.461 76.1456 117.445 75.9838 117.445 75.8221C117.445 75.6279 117.445 75.4176 117.445 75.1911V72.6189C117.445 72.3924 117.445 72.166 117.445 71.9395C117.445 71.713 117.461 71.4703 117.494 71.2115C117.494 70.985 117.494 70.7585 117.494 70.532C117.494 70.3055 117.477 70.0791 117.445 69.8526V69.1731C117.445 68.8496 117.428 68.6231 117.396 68.4937C117.396 68.2672 117.379 68.0569 117.347 67.8628C117.347 67.6363 117.331 67.426 117.298 67.2318C117.233 66.7789 117.167 66.3906 117.102 66.0671C117.07 65.9053 117.037 65.7597 117.004 65.6303C116.972 65.4685 116.923 65.3067 116.858 65.1449C116.793 64.9832 116.744 64.8537 116.711 64.7567C116.678 64.6596 116.629 64.5625 116.564 64.4655C116.499 64.3684 116.45 64.2875 116.418 64.2228C116.385 64.1581 116.352 64.0934 116.32 64.0287C116.287 64.0287 116.255 64.0125 116.222 63.9802C116.189 63.9802 116.173 63.964 116.173 63.9316L116.222 63.9802C116.222 64.0125 116.238 64.0449 116.271 64.0772C116.271 64.1096 116.271 64.1419 116.271 64.1743C116.303 64.1743 116.32 64.2066 116.32 64.2714C116.352 64.3037 116.369 64.3361 116.369 64.3684C116.369 64.4008 116.385 64.4493 116.418 64.514C116.45 64.6434 116.499 64.8699 116.564 65.1935C116.597 65.3552 116.613 65.517 116.613 65.6788C116.646 65.8406 116.678 66.0023 116.711 66.1641C116.711 66.3259 116.711 66.5038 116.711 66.698C116.744 66.8597 116.76 67.0539 116.76 67.2804V73.2984C116.76 73.4278 116.76 73.541 116.76 73.6381C116.793 73.7352 116.809 73.8484 116.809 73.9778C116.809 74.2043 116.809 74.4308 116.809 74.6573C116.841 74.8514 116.874 75.0456 116.907 75.2397C116.939 75.4338 116.956 75.6279 116.956 75.8221C116.988 76.0162 117.021 76.1941 117.053 76.3559C117.119 76.5501 117.167 76.728 117.2 76.8898C117.233 77.0192 117.282 77.1648 117.347 77.3266C117.412 77.4883 117.461 77.6178 117.494 77.7148C117.526 77.8119 117.575 77.909 117.64 78.006L117.738 78.1031C117.771 78.1354 117.787 78.1678 117.787 78.2002C117.787 78.2002 117.803 78.2163 117.836 78.2487L118.032 78.4428H118.08Z" fill="#F4EDE8"/>
<path d="M135.924 54.8075C135.924 56.1664 135.598 57.4121 134.946 58.5445C134.294 59.677 133.414 60.5829 132.305 61.2623C133.414 61.9094 134.294 62.8154 134.946 63.9802C135.598 65.1126 135.924 66.3582 135.924 67.7172V70.8718C135.892 71.9071 135.68 72.8778 135.289 73.7837C134.897 74.6573 134.359 75.4338 133.675 76.1133C132.99 76.7604 132.191 77.278 131.278 77.6663C130.365 78.0546 129.387 78.2487 128.344 78.2487H123.697C123.502 78.2487 123.322 78.1678 123.159 78.006C122.996 77.8442 122.915 77.6663 122.915 77.4722C122.915 77.6663 122.833 77.8442 122.67 78.006C122.54 78.1678 122.36 78.2487 122.132 78.2487H119.589C119.589 77.9575 119.638 77.7472 119.736 77.6178C119.866 77.4883 119.997 77.3589 120.127 77.2295C120.257 77.0677 120.371 76.8574 120.469 76.5986C120.6 76.3397 120.665 75.9353 120.665 75.3853V63.5434C120.567 62.5404 120.111 61.8124 119.296 61.3594C119.654 61.1329 120.111 61.0197 120.665 61.0197V47.1394C120.665 46.5894 120.6 46.1849 120.469 45.9261C120.371 45.6673 120.257 45.4731 120.127 45.3437C119.997 45.1819 119.866 45.0363 119.736 44.9069C119.638 44.7775 119.589 44.5672 119.589 44.276H122.181C122.377 44.276 122.556 44.3569 122.719 44.5187C122.882 44.6481 122.964 44.826 122.964 45.0525C122.964 44.5348 123.224 44.276 123.746 44.276H128.344C129.387 44.276 130.365 44.4701 131.278 44.8584C132.191 45.2466 132.99 45.7805 133.675 46.46C134.359 47.1071 134.897 47.8836 135.289 48.7895C135.68 49.6955 135.892 50.6499 135.924 51.6529V54.8075ZM123.306 58.9813C123.306 58.8195 123.29 58.6416 123.257 58.4475C123.257 58.2533 123.257 58.0592 123.257 57.8651V56.7974C123.224 56.0856 123.208 55.4061 123.208 54.759C123.208 54.1119 123.192 53.4972 123.159 52.9148C123.127 52.6559 123.11 52.3971 123.11 52.1383C123.11 51.8794 123.094 51.6368 123.061 51.4103C123.061 51.1514 123.045 50.9249 123.013 50.7308C123.013 50.5367 123.013 50.3587 123.013 50.197C123.013 50.0352 122.996 49.8896 122.964 49.7602C122.964 49.6307 122.964 49.5175 122.964 49.4204V49.1778C122.931 49.1778 122.915 49.194 122.915 49.2263V49.4204C122.915 49.5175 122.898 49.6307 122.866 49.7602C122.866 49.8896 122.866 50.0352 122.866 50.197C122.866 50.3587 122.85 50.5367 122.817 50.7308C122.817 50.9249 122.817 51.1514 122.817 51.4103C122.784 51.6368 122.768 51.8794 122.768 52.1383C122.768 52.3971 122.752 52.6559 122.719 52.9148C122.686 53.4972 122.67 54.1119 122.67 54.759C122.67 55.4061 122.654 56.0856 122.621 56.7974V57.8651C122.621 58.0592 122.605 58.2533 122.572 58.4475C122.572 58.6416 122.572 58.8195 122.572 58.9813V63.4948C122.572 63.7537 122.589 63.9478 122.621 64.0772V65.6788C122.621 66.0347 122.621 66.3906 122.621 66.7465C122.654 67.0701 122.67 67.3936 122.67 67.7172C122.67 68.0731 122.67 68.3966 122.67 68.6878C122.703 68.979 122.719 69.2702 122.719 69.5614C122.752 69.8526 122.768 70.1276 122.768 70.3864C122.768 70.6129 122.784 70.8556 122.817 71.1144C122.817 71.3409 122.817 71.5512 122.817 71.7453C122.85 71.9395 122.866 72.1174 122.866 72.2792C122.866 72.441 122.866 72.6028 122.866 72.7645C122.898 72.8939 122.915 72.991 122.915 73.0557V73.2984C122.915 73.3307 122.931 73.3469 122.964 73.3469V73.0557C122.964 72.991 122.964 72.8939 122.964 72.7645C122.996 72.6028 123.013 72.441 123.013 72.2792C123.013 72.1174 123.013 71.9395 123.013 71.7453C123.045 71.5512 123.061 71.3409 123.061 71.1144C123.094 70.8556 123.11 70.6129 123.11 70.3864C123.11 70.1276 123.127 69.8526 123.159 69.5614C123.159 69.2702 123.159 68.979 123.159 68.6878C123.192 68.3966 123.208 68.0731 123.208 67.7172C123.208 67.3936 123.208 67.0701 123.208 66.7465C123.241 66.3906 123.257 66.0347 123.257 65.6788V64.6111C123.257 64.3522 123.273 64.1743 123.306 64.0772V58.9813ZM133.381 70.2408C133.348 70.3056 133.332 70.3864 133.332 70.4835V71.5997C133.3 71.7292 133.283 71.8586 133.283 71.988C133.283 72.0851 133.283 72.1821 133.283 72.2792C133.283 72.3439 133.267 72.3924 133.234 72.4248C133.234 72.4572 133.234 72.5057 133.234 72.5704V72.8616C133.202 72.9263 133.185 73.0072 133.185 73.1043C133.185 73.169 133.169 73.2337 133.137 73.2984C133.137 73.3631 133.12 73.4116 133.088 73.444V73.541L133.039 73.6381C133.039 73.6381 133.071 73.6219 133.137 73.5896V73.541L133.185 73.4925C133.218 73.4602 133.234 73.444 133.234 73.444C133.234 73.4116 133.251 73.3793 133.283 73.3469C133.316 73.2822 133.348 73.2175 133.381 73.1528C133.414 73.0557 133.446 72.9748 133.479 72.9101C133.512 72.8454 133.528 72.8131 133.528 72.8131C133.528 72.7807 133.544 72.7322 133.577 72.6675C133.609 72.6028 133.626 72.5542 133.626 72.5219C133.626 72.4895 133.642 72.441 133.675 72.3763C133.707 72.3116 133.723 72.263 133.723 72.2307C133.723 72.166 133.74 72.1012 133.772 72.0365C133.772 71.9718 133.772 71.9233 133.772 71.8909C133.805 71.8262 133.821 71.7615 133.821 71.6968C133.854 71.5674 133.87 71.438 133.87 71.3086C133.903 71.1791 133.935 71.0497 133.968 70.9203C134.001 70.8232 134.017 70.6776 134.017 70.4835C134.017 70.4188 134.017 70.3541 134.017 70.2894C134.05 70.2247 134.066 70.16 134.066 70.0952V68.3966C134.066 68.2025 134.05 68.0569 134.017 67.9598V67.7657C134.017 67.701 134.001 67.6686 133.968 67.6686C133.968 67.6363 133.968 67.6039 133.968 67.5716C133.968 67.4098 133.952 67.2804 133.919 67.1833C133.919 67.0539 133.903 66.9245 133.87 66.795C133.838 66.7303 133.821 66.6656 133.821 66.6009C133.821 66.5362 133.805 66.4715 133.772 66.4068C133.772 66.3744 133.756 66.3582 133.723 66.3582C133.723 66.3259 133.723 66.2935 133.723 66.2612C133.723 66.2288 133.707 66.2127 133.675 66.2127C133.675 66.1803 133.675 66.1479 133.675 66.1156C133.642 66.0509 133.626 66.0023 133.626 65.97C133.626 65.9376 133.609 65.8891 133.577 65.8244C133.544 65.7597 133.528 65.7111 133.528 65.6788C133.528 65.6464 133.512 65.5979 133.479 65.5332C133.446 65.5008 133.43 65.4685 133.43 65.4361C133.43 65.4038 133.414 65.3714 133.381 65.3391C133.316 65.2096 133.283 65.1449 133.283 65.1449C133.251 65.1126 133.234 65.0964 133.234 65.0964C133.234 65.0641 133.218 65.0317 133.185 64.9993C133.153 64.967 133.137 64.9346 133.137 64.9023L133.039 64.8052C133.039 64.8052 133.055 64.8376 133.088 64.9023V64.9993C133.12 65.0317 133.137 65.0964 133.137 65.1935C133.137 65.2258 133.137 65.2582 133.137 65.2905C133.169 65.2905 133.185 65.3229 133.185 65.3876C133.185 65.4847 133.202 65.5656 133.234 65.6303V65.8729C133.234 65.9376 133.234 65.9862 133.234 66.0185C133.267 66.0509 133.283 66.0994 133.283 66.1641C133.283 66.4553 133.3 66.6818 133.332 66.8436V67.6201C133.365 67.7819 133.381 68.0407 133.381 68.3966V70.2408ZM131.376 67.7172C131.376 67.2965 131.36 66.7789 131.327 66.1641C131.294 65.5494 131.18 64.967 130.985 64.417C130.789 63.8669 130.479 63.3978 130.055 63.0095C129.664 62.5889 129.077 62.3786 128.295 62.3786H126.534C126.175 62.4109 125.866 62.5565 125.605 62.8154C125.344 63.0742 125.213 63.3816 125.213 63.7375V74.6573C125.213 75.0132 125.344 75.3206 125.605 75.5794C125.866 75.8382 126.175 75.9677 126.534 75.9677H128.295C129.077 75.9677 129.664 75.7735 130.055 75.3853C130.479 74.997 130.789 74.5279 130.985 73.9778C131.18 73.3954 131.294 72.8131 131.327 72.2307C131.36 71.6159 131.376 71.0982 131.376 70.6776V67.7172ZM131.376 51.8471C131.376 51.4264 131.36 50.9088 131.327 50.294C131.294 49.6793 131.18 49.0969 130.985 48.5469C130.789 47.9968 130.479 47.5277 130.055 47.1394C129.664 46.7188 129.077 46.5085 128.295 46.5085H126.534C126.175 46.5408 125.866 46.6864 125.605 46.9453C125.344 47.2041 125.213 47.5115 125.213 47.8674V58.7872C125.213 59.1431 125.344 59.4505 125.605 59.7093C125.866 59.9681 126.175 60.0976 126.534 60.0976H128.295C129.077 60.0976 129.664 59.9034 130.055 59.5152C130.479 59.1269 130.789 58.6578 130.985 58.1077C131.18 57.5253 131.294 56.943 131.327 56.3606C131.36 55.7458 131.376 55.2281 131.376 54.8075V51.8471ZM133.479 56.6518C133.512 56.5871 133.528 56.5547 133.528 56.5547C133.528 56.5223 133.544 56.4738 133.577 56.4091C133.609 56.3444 133.626 56.2959 133.626 56.2635C133.626 56.1988 133.642 56.1341 133.675 56.0694C133.707 56.0047 133.723 55.9561 133.723 55.9238C133.723 55.8914 133.74 55.8429 133.772 55.7782C133.772 55.7135 133.772 55.6649 133.772 55.6326C133.805 55.5679 133.821 55.5032 133.821 55.4385C133.854 55.309 133.87 55.1796 133.87 55.0502C133.903 54.9208 133.935 54.7914 133.968 54.6619C134.001 54.5649 134.017 54.4193 134.017 54.2251C134.017 54.1604 134.017 54.0957 134.017 54.031C134.05 53.9663 134.066 53.9016 134.066 53.8369V52.1383C134.066 51.9441 134.05 51.7985 134.017 51.7015V51.5073C134.017 51.4426 134.001 51.4103 133.968 51.4103C133.968 51.3779 133.968 51.3294 133.968 51.2647C133.968 51.1029 133.935 50.8602 133.87 50.5367C133.838 50.472 133.821 50.4073 133.821 50.3426C133.821 50.2778 133.805 50.2131 133.772 50.1484C133.772 50.1161 133.756 50.0999 133.723 50.0999C133.723 50.0675 133.723 50.0352 133.723 50.0028C133.723 49.9705 133.707 49.9543 133.675 49.9543C133.675 49.9219 133.675 49.8896 133.675 49.8572C133.642 49.7925 133.626 49.744 133.626 49.7116C133.626 49.6793 133.609 49.6307 133.577 49.566C133.544 49.5013 133.528 49.4528 133.528 49.4204C133.528 49.3881 133.512 49.3395 133.479 49.2748C133.446 49.2425 133.43 49.2101 133.43 49.1778C133.43 49.1454 133.414 49.1131 133.381 49.0807C133.316 48.9513 133.283 48.8866 133.283 48.8866C133.251 48.8542 133.234 48.838 133.234 48.838C133.234 48.8057 133.218 48.7733 133.185 48.741C133.153 48.7086 133.137 48.6763 133.137 48.6439C133.104 48.6116 133.088 48.5792 133.088 48.5469H133.039C133.039 48.5469 133.055 48.5792 133.088 48.6439V48.741C133.12 48.7733 133.137 48.838 133.137 48.9351C133.137 48.9675 133.137 48.9998 133.137 49.0322C133.169 49.0322 133.185 49.0645 133.185 49.1292C133.185 49.2263 133.202 49.3072 133.234 49.3719V49.6146C133.234 49.6793 133.234 49.7278 133.234 49.7602C133.267 49.7925 133.283 49.8411 133.283 49.9058C133.283 50.197 133.3 50.4234 133.332 50.5852V51.3617C133.365 51.5235 133.381 51.7823 133.381 52.1383V53.9825C133.348 54.0472 133.332 54.1281 133.332 54.2251V55.3414C133.3 55.4708 133.283 55.6002 133.283 55.7297C133.283 55.8267 133.283 55.9238 133.283 56.0208C133.283 56.0856 133.267 56.1341 133.234 56.1664C133.234 56.1988 133.234 56.2473 133.234 56.312V56.6032C133.202 56.6679 133.185 56.7488 133.185 56.8459C133.185 56.9106 133.169 56.9753 133.137 57.04C133.137 57.1047 133.12 57.1533 133.088 57.1856V57.2827L133.039 57.3798C133.039 57.3798 133.071 57.3636 133.137 57.3312V57.2827L133.185 57.2342C133.218 57.2018 133.234 57.1856 133.234 57.1856C133.234 57.1533 133.251 57.1209 133.283 57.0886C133.316 57.0238 133.348 56.9591 133.381 56.8944C133.414 56.7974 133.446 56.7165 133.479 56.6518Z" fill="#F4EDE8"/>
<path d="M152.594 75.2882C152.594 75.8706 152.643 76.3074 152.741 76.5986C152.872 76.8574 153.002 77.0677 153.132 77.2295C153.263 77.3589 153.377 77.4883 153.475 77.6178C153.605 77.7472 153.67 77.9575 153.67 78.2487H140.367C140.172 78.2487 139.992 78.1678 139.829 78.006C139.666 77.8442 139.585 77.6663 139.585 77.4722C139.585 77.6663 139.503 77.8442 139.34 78.006C139.21 78.1678 139.031 78.2487 138.802 78.2487H136.259C136.259 77.9575 136.308 77.7472 136.406 77.6178C136.536 77.4883 136.667 77.3589 136.797 77.2295C136.927 77.0677 137.042 76.8574 137.139 76.5986C137.27 76.3397 137.335 75.9353 137.335 75.3853V63.5434C137.237 62.5404 136.781 61.8124 135.966 61.3594C136.324 61.1329 136.781 61.0197 137.335 61.0197V47.1394C137.335 46.5894 137.27 46.1849 137.139 45.9261C137.042 45.6673 136.927 45.4731 136.797 45.3437C136.667 45.1819 136.536 45.0363 136.406 44.9069C136.308 44.7775 136.259 44.5672 136.259 44.276H138.851C139.047 44.276 139.226 44.3569 139.389 44.5187C139.552 44.6481 139.634 44.826 139.634 45.0525C139.634 44.5348 139.895 44.276 140.416 44.276H153.67C153.67 44.5672 153.605 44.7775 153.475 44.9069C153.377 45.0363 153.263 45.1819 153.132 45.3437C153.002 45.4731 152.872 45.6834 152.741 45.9746C152.643 46.2335 152.594 46.6541 152.594 47.2365V53.6913C151.453 53.6913 150.573 53.481 149.953 53.0604C149.366 52.6074 148.926 52.1059 148.633 51.5559C148.274 50.9411 148.079 50.2131 148.046 49.3719V47.8674C148.046 47.5115 147.916 47.2041 147.655 46.9453C147.394 46.6864 147.084 46.5408 146.725 46.5085H143.204C142.845 46.5408 142.536 46.6864 142.275 46.9453C142.014 47.2041 141.883 47.5115 141.883 47.8674V58.7872C141.883 59.1431 142.014 59.4505 142.275 59.7093C142.536 59.9681 142.845 60.0976 143.204 60.0976H143.546C143.905 60.0976 144.198 59.9681 144.427 59.7093C144.688 59.4505 144.818 59.1431 144.818 58.7872V58.7387C144.851 58.2533 144.981 57.8327 145.209 57.4768C145.405 57.1533 145.698 56.8621 146.09 56.6032C146.481 56.3444 147.051 56.215 147.801 56.215V66.2612C147.051 66.2612 146.481 66.1318 146.09 65.8729C145.698 65.6141 145.405 65.3229 145.209 64.9993C144.981 64.6434 144.851 64.2228 144.818 63.7375C144.818 63.3816 144.688 63.0742 144.427 62.8154C144.198 62.5565 143.905 62.4109 143.546 62.3786H143.204C142.845 62.4109 142.536 62.5565 142.275 62.8154C142.014 63.0742 141.883 63.3816 141.883 63.7375V74.6573C141.883 75.0132 142.014 75.3206 142.275 75.5794C142.536 75.8382 142.845 75.9677 143.204 75.9677H146.725C147.084 75.9677 147.394 75.8382 147.655 75.5794C147.916 75.3206 148.046 75.0132 148.046 74.6573V73.1043C148.079 72.2954 148.274 71.5836 148.633 70.9688C148.926 70.4188 149.366 69.9173 149.953 69.4643C150.573 69.0114 151.453 68.7849 152.594 68.7849V75.2882ZM139.976 58.9813C139.976 58.8195 139.96 58.6416 139.927 58.4475C139.927 58.2533 139.927 58.0592 139.927 57.8651V56.7974C139.895 56.0856 139.878 55.4061 139.878 54.759C139.878 54.1119 139.862 53.4972 139.829 52.9148C139.797 52.6559 139.78 52.3971 139.78 52.1383C139.78 51.8794 139.764 51.6368 139.732 51.4103C139.732 51.1514 139.715 50.9249 139.683 50.7308C139.683 50.5367 139.683 50.3587 139.683 50.197C139.683 50.0352 139.666 49.8896 139.634 49.7602C139.634 49.6307 139.634 49.5175 139.634 49.4204V49.1778C139.601 49.1778 139.585 49.194 139.585 49.2263V49.4204C139.585 49.5175 139.569 49.6307 139.536 49.7602C139.536 49.8896 139.536 50.0352 139.536 50.197C139.536 50.3587 139.52 50.5367 139.487 50.7308C139.487 50.9249 139.487 51.1514 139.487 51.4103C139.454 51.6368 139.438 51.8794 139.438 52.1383C139.438 52.3971 139.422 52.6559 139.389 52.9148C139.357 53.4972 139.34 54.1119 139.34 54.759C139.34 55.4061 139.324 56.0856 139.291 56.7974V57.8651C139.291 58.0592 139.275 58.2533 139.242 58.4475C139.242 58.6416 139.242 58.8195 139.242 58.9813V63.4948C139.242 63.7537 139.259 63.9478 139.291 64.0772V65.6788C139.291 66.0347 139.291 66.3906 139.291 66.7465C139.324 67.0701 139.34 67.3936 139.34 67.7172C139.34 68.0731 139.34 68.3966 139.34 68.6878C139.373 68.979 139.389 69.2702 139.389 69.5614C139.422 69.8526 139.438 70.1276 139.438 70.3864C139.438 70.6129 139.454 70.8556 139.487 71.1144C139.487 71.3409 139.487 71.5512 139.487 71.7453C139.52 71.9395 139.536 72.1174 139.536 72.2792C139.536 72.441 139.536 72.6028 139.536 72.7645C139.569 72.8939 139.585 72.991 139.585 73.0557V73.2984C139.585 73.3307 139.601 73.3469 139.634 73.3469V73.0557C139.634 72.991 139.634 72.8939 139.634 72.7645C139.666 72.6028 139.683 72.441 139.683 72.2792C139.683 72.1174 139.683 71.9395 139.683 71.7453C139.715 71.5512 139.732 71.3409 139.732 71.1144C139.764 70.8556 139.78 70.6129 139.78 70.3864C139.78 70.1276 139.797 69.8526 139.829 69.5614C139.829 69.2702 139.829 68.979 139.829 68.6878C139.862 68.3966 139.878 68.0731 139.878 67.7172C139.878 67.3936 139.878 67.0701 139.878 66.7465C139.911 66.3906 139.927 66.0347 139.927 65.6788V64.6111C139.927 64.3522 139.943 64.1743 139.976 64.0772V58.9813Z" fill="#F4EDE8"/>
<path d="M172.269 80.287C172.628 80.3518 172.873 80.465 173.003 80.6268C173.166 80.7886 173.28 80.9503 173.345 81.1121C173.411 81.3062 173.443 81.5165 173.443 81.743C172.4 81.743 171.422 81.6136 170.509 81.3548C169.596 81.0959 168.781 80.6753 168.063 80.0929C167.378 79.5105 166.824 78.7502 166.4 77.8119C166.009 76.8736 165.813 75.725 165.813 74.3661V67.7172C165.813 67.2965 165.797 66.7789 165.765 66.1641C165.732 65.5494 165.618 64.967 165.422 64.417C165.227 63.8669 164.917 63.3978 164.493 63.0095C164.102 62.5889 163.515 62.3786 162.732 62.3786H160.727C160.434 62.4433 160.173 62.6051 159.944 62.8639C159.749 63.0904 159.651 63.3654 159.651 63.689V75.2882C159.651 75.8706 159.7 76.3074 159.798 76.5986C159.928 76.8574 160.059 77.0677 160.189 77.2295C160.319 77.3589 160.434 77.4883 160.531 77.6178C160.662 77.7472 160.727 77.9575 160.727 78.2487H158.135C157.939 78.2487 157.76 78.1678 157.597 78.006C157.434 77.8442 157.352 77.6663 157.352 77.4722C157.352 77.6663 157.271 77.8442 157.108 78.006C156.977 78.1678 156.798 78.2487 156.57 78.2487H154.027C154.027 77.9575 154.075 77.7472 154.173 77.6178C154.304 77.4883 154.434 77.3589 154.565 77.2295C154.695 77.0677 154.809 76.8574 154.907 76.5986C155.037 76.3397 155.102 75.9353 155.102 75.3853V63.5434C155.005 62.5404 154.548 61.8124 153.733 61.3594C154.092 61.1329 154.548 61.0197 155.102 61.0197V47.1394C155.102 46.5894 155.037 46.1849 154.907 45.9261C154.809 45.6673 154.695 45.4731 154.565 45.3437C154.434 45.1819 154.304 45.0363 154.173 44.9069C154.075 44.7775 154.027 44.5672 154.027 44.276H156.619C156.814 44.276 156.994 44.3569 157.157 44.5187C157.32 44.6481 157.401 44.826 157.401 45.0525C157.401 44.5348 157.662 44.276 158.184 44.276H162.781C163.824 44.276 164.803 44.4701 165.716 44.8584C166.629 45.2466 167.427 45.7805 168.112 46.46C168.797 47.1071 169.335 47.8836 169.726 48.7895C170.117 49.6955 170.329 50.6499 170.362 51.6529V54.8075C170.362 56.1664 170.036 57.4121 169.384 58.5445C168.732 59.677 167.851 60.5829 166.743 61.2623C167.851 61.9094 168.732 62.8154 169.384 63.9802C170.036 65.1126 170.362 66.3582 170.362 67.7172V74.172C170.362 74.8514 170.362 75.5471 170.362 76.2589C170.395 76.9383 170.476 77.5692 170.606 78.1516C170.737 78.7017 170.932 79.1708 171.193 79.5591C171.454 79.9473 171.813 80.19 172.269 80.287ZM167.819 53.9825C167.786 54.0472 167.77 54.1281 167.77 54.2251V55.3414C167.737 55.4708 167.721 55.6002 167.721 55.7297C167.721 55.8267 167.721 55.9238 167.721 56.0208C167.721 56.0856 167.705 56.1341 167.672 56.1664C167.672 56.1988 167.672 56.2473 167.672 56.312V56.6032C167.639 56.6679 167.623 56.7488 167.623 56.8459C167.623 56.9106 167.607 56.9753 167.574 57.04C167.574 57.1047 167.558 57.1533 167.525 57.1856V57.2827L167.476 57.3798C167.476 57.3798 167.509 57.3636 167.574 57.3312V57.2827L167.623 57.2342C167.656 57.2018 167.672 57.1856 167.672 57.1856C167.672 57.1533 167.688 57.1209 167.721 57.0886C167.753 57.0238 167.786 56.9591 167.819 56.8944C167.851 56.7974 167.884 56.7165 167.916 56.6518C167.949 56.5871 167.965 56.5547 167.965 56.5547C167.965 56.5223 167.982 56.4738 168.014 56.4091C168.047 56.3444 168.063 56.2959 168.063 56.2635C168.063 56.1988 168.079 56.1341 168.112 56.0694C168.145 56.0047 168.161 55.9561 168.161 55.9238C168.161 55.8914 168.177 55.8429 168.21 55.7782C168.21 55.7135 168.21 55.6649 168.21 55.6326C168.243 55.5679 168.259 55.5032 168.259 55.4385C168.291 55.309 168.308 55.1796 168.308 55.0502C168.34 54.9208 168.373 54.7914 168.406 54.6619C168.438 54.5649 168.454 54.4193 168.454 54.2251C168.454 54.1604 168.454 54.0957 168.454 54.031C168.487 53.9663 168.503 53.9016 168.503 53.8369V52.1383C168.503 51.9441 168.487 51.7985 168.454 51.7015V51.5073C168.454 51.4426 168.438 51.4103 168.406 51.4103C168.406 51.3779 168.406 51.3294 168.406 51.2647C168.406 51.1029 168.373 50.8602 168.308 50.5367C168.275 50.472 168.259 50.4073 168.259 50.3426C168.259 50.2778 168.243 50.2131 168.21 50.1484C168.21 50.1161 168.194 50.0999 168.161 50.0999C168.161 50.0675 168.161 50.0352 168.161 50.0028C168.161 49.9705 168.145 49.9543 168.112 49.9543C168.112 49.9219 168.112 49.8896 168.112 49.8572C168.079 49.7925 168.063 49.744 168.063 49.7116C168.063 49.6793 168.047 49.6307 168.014 49.566C167.982 49.5013 167.965 49.4528 167.965 49.4204C167.965 49.3881 167.949 49.3395 167.916 49.2748C167.884 49.2425 167.868 49.2101 167.868 49.1778C167.868 49.1454 167.851 49.1131 167.819 49.0807C167.753 48.9513 167.721 48.8866 167.721 48.8866C167.688 48.8542 167.672 48.838 167.672 48.838C167.672 48.8057 167.656 48.7733 167.623 48.741C167.59 48.7086 167.574 48.6763 167.574 48.6439C167.542 48.6116 167.525 48.5792 167.525 48.5469H167.476C167.476 48.5469 167.493 48.5792 167.525 48.6439V48.741C167.558 48.7733 167.574 48.838 167.574 48.9351C167.574 48.9675 167.574 48.9998 167.574 49.0322C167.607 49.0322 167.623 49.0645 167.623 49.1292C167.623 49.2263 167.639 49.3072 167.672 49.3719V49.6146C167.672 49.6793 167.672 49.7278 167.672 49.7602C167.705 49.7925 167.721 49.8411 167.721 49.9058C167.721 50.197 167.737 50.4234 167.77 50.5852V51.3617C167.802 51.5235 167.819 51.7823 167.819 52.1383V53.9825ZM157.744 58.9813C157.744 58.8195 157.727 58.6416 157.695 58.4475C157.695 58.2533 157.695 58.0592 157.695 57.8651V56.7974C157.662 56.0856 157.646 55.4061 157.646 54.759C157.646 54.1119 157.629 53.4972 157.597 52.9148C157.564 52.6559 157.548 52.3971 157.548 52.1383C157.548 51.8794 157.532 51.6368 157.499 51.4103C157.499 51.1514 157.483 50.9249 157.45 50.7308C157.45 50.5367 157.45 50.3587 157.45 50.197C157.45 50.0352 157.434 49.8896 157.401 49.7602C157.401 49.6307 157.401 49.5175 157.401 49.4204V49.1778C157.369 49.1778 157.352 49.194 157.352 49.2263V49.4204C157.352 49.5175 157.336 49.6307 157.303 49.7602C157.303 49.8896 157.303 50.0352 157.303 50.197C157.303 50.3587 157.287 50.5367 157.254 50.7308C157.254 50.9249 157.254 51.1514 157.254 51.4103C157.222 51.6368 157.206 51.8794 157.206 52.1383C157.206 52.3971 157.189 52.6559 157.157 52.9148C157.124 53.4972 157.108 54.1119 157.108 54.759C157.108 55.4061 157.091 56.0856 157.059 56.7974V57.8651C157.059 58.0592 157.043 58.2533 157.01 58.4475C157.01 58.6416 157.01 58.8195 157.01 58.9813V63.4948C157.01 63.7537 157.026 63.9478 157.059 64.0772V65.6788C157.059 66.0347 157.059 66.3906 157.059 66.7465C157.091 67.0701 157.108 67.3936 157.108 67.7172C157.108 68.0731 157.108 68.3966 157.108 68.6878C157.14 68.979 157.157 69.2702 157.157 69.5614C157.189 69.8526 157.206 70.1276 157.206 70.3864C157.206 70.6129 157.222 70.8556 157.254 71.1144C157.254 71.3409 157.254 71.5512 157.254 71.7453C157.287 71.9395 157.303 72.1174 157.303 72.2792C157.303 72.441 157.303 72.6028 157.303 72.7645C157.336 72.8939 157.352 72.991 157.352 73.0557V73.2984C157.352 73.3307 157.369 73.3469 157.401 73.3469V73.0557C157.401 72.991 157.401 72.8939 157.401 72.7645C157.434 72.6028 157.45 72.441 157.45 72.2792C157.45 72.1174 157.45 71.9395 157.45 71.7453C157.483 71.5512 157.499 71.3409 157.499 71.1144C157.532 70.8556 157.548 70.6129 157.548 70.3864C157.548 70.1276 157.564 69.8526 157.597 69.5614C157.597 69.2702 157.597 68.979 157.597 68.6878C157.629 68.3966 157.646 68.0731 157.646 67.7172C157.646 67.3936 157.646 67.0701 157.646 66.7465C157.678 66.3906 157.695 66.0347 157.695 65.6788V64.6111C157.695 64.3522 157.711 64.1743 157.744 64.0772V58.9813ZM165.813 51.8471C165.813 51.4264 165.797 50.9088 165.765 50.294C165.732 49.6793 165.618 49.0969 165.422 48.5469C165.227 47.9968 164.917 47.5277 164.493 47.1394C164.102 46.7188 163.515 46.5085 162.732 46.5085H160.971C160.613 46.5408 160.303 46.6864 160.042 46.9453C159.781 47.2041 159.651 47.5115 159.651 47.8674V58.7872C159.651 59.1431 159.781 59.4505 160.042 59.7093C160.303 59.9681 160.613 60.0976 160.971 60.0976H162.732C163.515 60.0976 164.102 59.9034 164.493 59.5152C164.917 59.1269 165.227 58.6578 165.422 58.1077C165.618 57.5253 165.732 56.943 165.765 56.3606C165.797 55.7458 165.813 55.2281 165.813 54.8075V51.8471ZM169.09 78.4428C169.09 78.4428 169.074 78.4266 169.041 78.3943L168.992 78.3458C168.96 78.281 168.927 78.2163 168.895 78.1516C168.895 78.0869 168.862 78.0222 168.797 77.9575C168.764 77.8604 168.732 77.7634 168.699 77.6663C168.666 77.5369 168.634 77.3913 168.601 77.2295C168.536 76.906 168.503 76.5986 168.503 76.3074C168.471 76.1456 168.454 75.9838 168.454 75.8221C168.454 75.6279 168.454 75.4176 168.454 75.1911V72.6189C168.454 72.3924 168.454 72.166 168.454 71.9395C168.454 71.713 168.471 71.4703 168.503 71.2115C168.503 70.985 168.503 70.7585 168.503 70.532C168.503 70.3055 168.487 70.0791 168.454 69.8526V69.1731C168.454 68.8496 168.438 68.6231 168.406 68.4937C168.406 68.2672 168.389 68.0569 168.357 67.8628C168.357 67.6363 168.34 67.426 168.308 67.2318C168.243 66.7789 168.177 66.3906 168.112 66.0671C168.079 65.9053 168.047 65.7597 168.014 65.6303C167.982 65.4685 167.933 65.3067 167.868 65.1449C167.802 64.9832 167.753 64.8537 167.721 64.7567C167.688 64.6596 167.639 64.5625 167.574 64.4655C167.509 64.3684 167.46 64.2875 167.427 64.2228C167.395 64.1581 167.362 64.0934 167.33 64.0287C167.297 64.0287 167.264 64.0125 167.232 63.9802C167.199 63.9802 167.183 63.964 167.183 63.9316L167.232 63.9802C167.232 64.0125 167.248 64.0449 167.281 64.0772C167.281 64.1096 167.281 64.1419 167.281 64.1743C167.313 64.1743 167.33 64.2066 167.33 64.2714C167.362 64.3037 167.378 64.3361 167.378 64.3684C167.378 64.4008 167.395 64.4493 167.427 64.514C167.46 64.6434 167.509 64.8699 167.574 65.1935C167.607 65.3552 167.623 65.517 167.623 65.6788C167.656 65.8406 167.688 66.0023 167.721 66.1641C167.721 66.3259 167.721 66.5038 167.721 66.698C167.753 66.8597 167.77 67.0539 167.77 67.2804V73.2984C167.77 73.4278 167.77 73.541 167.77 73.6381C167.802 73.7352 167.819 73.8484 167.819 73.9778C167.819 74.2043 167.819 74.4308 167.819 74.6573C167.851 74.8514 167.884 75.0456 167.916 75.2397C167.949 75.4338 167.965 75.6279 167.965 75.8221C167.998 76.0162 168.031 76.1941 168.063 76.3559C168.128 76.5501 168.177 76.728 168.21 76.8898C168.243 77.0192 168.291 77.1648 168.357 77.3266C168.422 77.4883 168.471 77.6178 168.503 77.7148C168.536 77.8119 168.585 77.909 168.65 78.006L168.748 78.1031C168.781 78.1354 168.797 78.1678 168.797 78.2002C168.797 78.2002 168.813 78.2163 168.846 78.2487L169.041 78.4428H169.09Z" fill="#F4EDE8"/>
<ellipse cx="2.62009" cy="2.59995" rx="2.62009" ry="2.59995" transform="matrix(1 0 0 -1 180.786 64.625)" fill="#999591"/>
<ellipse cx="2.62009" cy="2.59995" rx="2.62009" ry="2.59995" transform="matrix(1 0 0 -1 13.9736 64.625)" fill="#999591"/>
<rect y="26.4922" width="200" height="1.7333" fill="#FF9000"/>
<path d="M78.3867 13V12.0977L79.3184 11.9219V5.55273L78.3867 5.37695V4.46875H81.7207V5.37695L80.7949 5.55273V11.9219L81.7207 12.0977V13H78.3867ZM82.4707 13V12.0977L83.3496 11.9219V7.74414L82.4238 7.56836V6.66016H84.709L84.7852 7.58008C84.9961 7.25195 85.2578 6.99805 85.5703 6.81836C85.8867 6.63477 86.2441 6.54297 86.6426 6.54297C87.2949 6.54297 87.8027 6.74414 88.166 7.14648C88.5293 7.54492 88.7109 8.16992 88.7109 9.02148V11.9219L89.5898 12.0977V13H86.4082V12.0977L87.2344 11.9219V9.0332C87.2344 8.55273 87.1387 8.21289 86.9473 8.01367C86.7559 7.81055 86.4707 7.70898 86.0918 7.70898C85.8066 7.70898 85.5566 7.77344 85.3418 7.90234C85.1309 8.02734 84.959 8.20312 84.8262 8.42969V11.9219L85.6289 12.0977V13H82.4707ZM93.1172 13.123C92.5234 13.123 92.0078 12.9883 91.5703 12.7188C91.1367 12.4453 90.8008 12.0703 90.5625 11.5938C90.3281 11.1133 90.2109 10.5605 90.2109 9.93555V9.73047C90.2109 9.11719 90.3281 8.57031 90.5625 8.08984C90.7969 7.60938 91.1309 7.23242 91.5645 6.95898C92.002 6.68164 92.5176 6.54297 93.1113 6.54297C93.6543 6.54297 94.127 6.63086 94.5293 6.80664C94.9316 6.97852 95.2617 7.19336 95.5195 7.45117L95.5254 9.14453H94.4004L94.1836 8.02539C94.0742 7.91211 93.9355 7.82227 93.7676 7.75586C93.5996 7.68555 93.416 7.65039 93.2168 7.65039C92.8926 7.65039 92.6152 7.73828 92.3848 7.91406C92.1582 8.08984 91.9844 8.33398 91.8633 8.64648C91.7461 8.95508 91.6875 9.31641 91.6875 9.73047V9.93555C91.6875 10.3809 91.748 10.7559 91.8691 11.0605C91.9902 11.3652 92.1582 11.5957 92.373 11.752C92.5918 11.9082 92.8418 11.9863 93.123 11.9863C93.4629 11.9863 93.7383 11.8945 93.9492 11.7109C94.1641 11.5273 94.3047 11.2734 94.3711 10.9492H95.6484L95.666 10.9844C95.6191 11.3984 95.4961 11.7676 95.2969 12.0918C95.1016 12.4121 94.8242 12.6641 94.4648 12.8477C94.1094 13.0312 93.6602 13.123 93.1172 13.123ZM96.5566 13V12.0977L97.4355 11.9219V7.74414L96.5098 7.56836V6.66016H98.7949L98.8711 7.45703L98.8828 7.58594C99.0508 7.25 99.2559 6.99219 99.498 6.8125C99.7441 6.63281 100.031 6.54297 100.359 6.54297C100.469 6.54297 100.584 6.55273 100.705 6.57227C100.83 6.5918 100.932 6.61328 101.01 6.63672L100.84 8.00195L100.014 7.95508C99.7441 7.93945 99.5215 7.99219 99.3457 8.11328C99.1738 8.23438 99.0293 8.40234 98.9121 8.61719V11.9219L99.791 12.0977V13H96.5566ZM101.566 13V12.0977L102.445 11.9219V7.74414L101.514 7.56836V6.66016H103.922V11.9219L104.795 12.0977V13H101.566ZM102.264 5.45312L103.395 3.85938H105.006L105.018 3.89453L103.418 5.45312H102.311H102.264ZM107.941 13L105.885 7.66797L105.211 7.56836V6.66016H108.111V7.56836L107.379 7.68555L108.521 10.8672L108.674 11.3711H108.709L108.885 10.8672L110.039 7.68555L109.236 7.56836V6.66016H112.131V7.56836L111.439 7.67383L109.377 13H107.941ZM115.506 13.123C114.908 13.123 114.387 12.9902 113.941 12.7246C113.5 12.4551 113.156 12.084 112.91 11.6113C112.668 11.1387 112.547 10.5977 112.547 9.98828V9.74219C112.547 9.125 112.666 8.57617 112.904 8.0957C113.146 7.61133 113.479 7.23242 113.9 6.95898C114.322 6.68164 114.803 6.54297 115.342 6.54297C115.916 6.54297 116.396 6.6582 116.783 6.88867C117.174 7.11914 117.469 7.44727 117.668 7.87305C117.867 8.29492 117.967 8.80273 117.967 9.39648V10.2402H114.076L114.064 10.2695C114.08 10.6016 114.148 10.8965 114.27 11.1543C114.395 11.4121 114.57 11.6152 114.797 11.7637C115.027 11.9121 115.307 11.9863 115.635 11.9863C115.979 11.9863 116.291 11.9395 116.572 11.8457C116.854 11.752 117.113 11.6191 117.352 11.4473L117.814 12.373C117.564 12.584 117.246 12.7617 116.859 12.9062C116.473 13.0508 116.021 13.123 115.506 13.123ZM114.1 9.20312H116.555V9.05078C116.555 8.77344 116.512 8.53125 116.426 8.32422C116.344 8.11328 116.213 7.94922 116.033 7.83203C115.857 7.71484 115.633 7.65625 115.359 7.65625C115.121 7.65625 114.912 7.72266 114.732 7.85547C114.553 7.98828 114.408 8.16992 114.299 8.40039C114.193 8.62695 114.121 8.88477 114.082 9.17383L114.1 9.20312ZM118.723 13V12.0977L119.607 11.9219V4.94336L118.67 4.76758V3.85938H121.078V11.9219L121.963 12.0977V13H118.723Z" fill="#999591"/>
</svg>
